<?xml version="1.0" standalone="no"?>
<!DOCTYPE svg PUBLIC "-//W3C//DTD SVG 20010904//EN" "http://www.w3.org/TR/2001/REC-SVG-20010904/DTD/svg10.dtd">
<svg xmlns="http://www.w3.org/2000/svg" version="1.0" width="2220.000000pt" height="1876.000000pt" viewBox="0 0 2220.000000 1876.000000" preserveAspectRatio="xMidYMid meet">
<metadata>
Created by potrace 1.16, written by Peter Selinger 2001-2019
<meta name="Producer" content="Online-Convert"/></metadata>
<g transform="translate(0.000000,1876.000000) scale(0.100000,-0.100000)" fill="#000000" stroke="none">
<path d="M10205 18754 c-589 -41 -931 -88 -1391 -189 -658 -146 -1268 -362 -1879 -665 -615 -305 -1128 -641 -1655 -1084 -85 -72 -157 -133 -160 -136 -3 -3 -64 -60 -136 -128 -1521 -1418 -2403 -3273 -2535 -5330 -15 -241 -6 -938 15 -1162 72 -758 238 -1474 496 -2139 81 -209 105 -263 273 -603 l161 -328 1183 0 c945 0 1183 3 1177 13 -4 6 -65 86 -135 177 -1048 1363 -1440 3207 -1043 4905 320 1368 1100 2572 2232 3442 976 752 2166 1197 3426 1284 218 15 817 6 1020 -15 1454 -151 2747 -748 3775 -1742 1346 -1302 2007 -3128 1800 -4969 -96 -853 -374 -1671 -821 -2414 -102 -170 -195 -305 -338 -491 -69 -91 -129 -171 -134 -177 -6 -10 232 -13 1176 -13 l1184 0 171 348 c179 363 257 547 367 870 205 603 328 1185 392 1852 21 224 30 921 15 1162 -56 868 -240 1687 -555 2465 -440 1087 -1099 2042 -1975 2861 -364 341 -790 670 -1210 936 -448 283 -978 548 -1481 739 -551 210 -1151 365 -1740 451 -441 64 -632 78 -1160 81 -256 1 -487 1 -515 -1z"/>
<path d="M10345 15763 c-278 -23 -470 -48 -674 -89 -1115 -225 -2097 -797 -2857 -1664 -656 -749 -1086 -1706 -1214 -2697 -63 -493 -51 -1087 30 -1543 97 -541 243 -979 486 -1460 205 -407 441 -748 754 -1093 l124 -137 668 0 c375 0 668 4 668 9 0 5 -7 28 -16 52 -14 40 -15 122 -9 804 4 418 8 774 10 790 7 64 17 1231 17 1899 -1 1096 -35 2001 -118 3140 -25 343 -25 350 -6 375 38 53 143 70 587 93 157 9 592 13 1365 12 1099 0 1571 -9 1800 -35 622 -68 1143 -284 1555 -643 479 -417 760 -958 852 -1636 25 -190 26 -712 0 -917 -87 -695 -329 -1234 -743 -1656 -403 -409 -900 -631 -1544 -688 -143 -13 -647 -6 -875 11 -233 18 -697 24 -738 10 -64 -21 -104 -63 -118 -126 -15 -68 -2 -330 41 -794 17 -179 33 -409 37 -512 l6 -188 1972 0 1972 0 126 139 c154 170 226 258 344 421 549 757 886 1680 953 2615 14 182 13 614 0 780 -55 682 -233 1324 -537 1930 -171 340 -459 766 -718 1060 -124 140 -389 403 -525 519 -832 711 -1851 1131 -2949 1216 -122 9 -626 12 -726 3z"/>
<path d="M10715 12619 c-173 -9 -333 -32 -375 -54 -16 -8 -34 -24 -40 -35 -34 -63 -46 -1033 -21 -1743 17 -467 5 -423 116 -451 118 -29 304 -41 685 -41 353 0 381 2 477 23 182 40 297 88 415 174 274 199 404 586 368 1093 -42 569 -310 905 -807 1009 -164 35 -468 44 -818 25z"/>
<path d="M15920 6208 c-129 -21 -238 -51 -304 -85 -174 -88 -368 -288 -437 -450 -38 -89 -50 -113 -55 -113 -4 0 -3 109 0 243 6 217 4 247 -11 287 -15 37 -27 49 -68 70 -49 24 -54 24 -255 22 -220 -3 -270 -11 -312 -50 -26 -24 -186 -337 -230 -447 -31 -79 -122 -259 -133 -262 -12 -4 -62 77 -71 115 -4 15 -26 65 -49 112 -49 97 -85 176 -85 185 0 14 -132 270 -148 289 -42 47 -86 56 -278 56 -259 0 -308 -12 -363 -91 l-23 -34 8 -265 c12 -359 11 -811 -3 -1125 -10 -248 -10 -262 9 -312 12 -34 31 -61 51 -75 31 -22 38 -23 282 -23 227 0 254 2 279 18 44 29 69 98 74 205 2 50 8 92 13 92 5 0 9 -7 9 -15 0 -21 107 -245 128 -269 26 -28 86 -56 137 -63 85 -11 185 46 218 125 8 21 30 73 48 117 51 125 53 124 59 -13 6 -134 11 -145 82 -182 36 -18 57 -20 274 -20 268 0 287 4 332 73 l27 41 -2 255 c-1 190 1 250 9 231 94 -219 174 -328 339 -463 52 -42 165 -102 251 -131 210 -73 398 -75 651 -8 60 16 237 109 286 150 71 59 139 132 187 199 41 57 59 91 123 223 l22 45 -3 -245 -3 -245 25 -44 c16 -28 39 -52 65 -65 39 -20 54 -21 485 -21 434 0 447 1 540 24 182 45 332 137 448 276 69 83 95 124 142 225 53 113 61 119 75 63 15 -64 97 -211 149 -272 97 -111 192 -191 288 -243 244 -133 549 -155 816 -59 85 30 203 90 229 116 8 8 17 15 21 15 12 0 114 101 157 155 22 28 45 55 51 60 24 21 97 174 125 258 40 125 52 222 46 383 -6 155 -25 270 -56 335 -12 24 -21 48 -21 55 0 15 -46 99 -77 140 -13 17 -23 36 -23 42 0 6 -42 52 -92 104 -151 152 -286 230 -463 267 -197 40 -283 40 -480 0 -219 -46 -436 -197 -570 -398 -40 -61 -54 -90 -99 -194 -10 -23 -21 -35 -27 -31 -6 3 -29 43 -50 88 -65 136 -80 157 -179 256 -114 114 -222 176 -365 211 -193 47 -241 51 -605 53 -409 1 -461 -5 -510 -61 -46 -52 -51 -86 -44 -333 5 -208 4 -223 -11 -205 -9 11 -19 31 -22 45 -18 77 -116 223 -214 321 -132 132 -277 213 -444 248 -156 32 -263 38 -375 19z m1960 -659 c38 -13 82 -42 115 -74 66 -67 95 -146 95 -261 0 -158 -56 -266 -171 -329 -46 -25 -64 -28 -138 -29 l-86 -1 -3 345 c-1 190 0 351 3 359 4 11 21 13 78 8 40 -4 88 -12 107 -18z m-1742 -28 c69 -25 92 -44 144 -113 40 -52 58 -113 58 -195 0 -93 -37 -179 -108 -250 -58 -58 -117 -78 -206 -71 -188 16 -303 221 -239 426 33 103 172 220 263 222 19 0 59 -9 88 -19z m3608 5 c134 -47 214 -160 215 -301 1 -146 -88 -287 -205 -325 -53 -17 -154 -8 -211 20 -52 25 -112 99 -138 170 -42 114 -6 267 82 354 86 85 172 112 257 82z"/>
<path d="M11490 6203 c-70 -7 -207 -46 -276 -79 -207 -99 -348 -247 -451 -473 l-43 -96 2 245 c3 228 2 248 -17 285 -14 28 -33 47 -65 63 -41 21 -57 22 -237 22 -261 0 -336 -20 -371 -98 -19 -42 -23 -257 -9 -479 6 -100 5 -122 -6 -117 -7 2 -21 17 -30 32 -9 15 -32 45 -52 67 -19 22 -35 44 -35 48 0 5 -16 28 -35 51 -19 23 -51 67 -72 97 -59 86 -186 260 -205 280 -10 11 -18 22 -18 27 0 4 -18 26 -41 49 -55 57 -91 67 -208 59 -159 -12 -275 -23 -291 -29 -8 -3 -27 -8 -43 -11 -15 -4 -46 -23 -69 -44 -25 -22 -43 -32 -45 -25 -10 28 -47 64 -80 78 -28 12 -87 15 -278 15 -220 0 -248 -2 -289 -20 -46 -19 -46 -19 -92 0 -41 18 -69 20 -258 20 -208 0 -213 -1 -263 -26 -48 -23 -55 -32 -91 -107 -22 -45 -54 -125 -72 -177 -49 -143 -79 -209 -119 -267 -34 -49 -84 -82 -96 -63 -3 4 -4 129 -3 277 3 306 4 304 -76 342 -43 20 -61 21 -279 21 -229 0 -234 0 -283 -25 -29 -15 -56 -36 -62 -51 -7 -14 -12 -74 -12 -137 l-1 -112 -32 39 c-85 103 -155 162 -240 204 -170 82 -252 94 -617 93 -374 -2 -546 -13 -598 -40 -91 -47 -94 -60 -81 -451 12 -330 5 -865 -10 -930 -5 -20 -9 -26 -10 -15 -1 12 -5 25 -10 30 -5 6 -18 35 -29 65 -11 30 -37 98 -57 150 -20 52 -50 133 -67 180 -16 47 -34 90 -38 95 -4 6 -15 35 -25 65 -10 30 -24 66 -31 80 -7 14 -27 63 -44 110 -63 167 -112 293 -140 355 -10 22 -21 51 -25 65 -4 14 -27 66 -50 115 -40 83 -47 92 -92 115 -44 22 -62 24 -222 28 -235 5 -293 -1 -337 -40 -19 -16 -34 -36 -34 -42 0 -7 -9 -30 -19 -52 -10 -21 -30 -76 -45 -121 -14 -45 -30 -90 -36 -100 -9 -17 -41 -102 -140 -384 -21 -58 -42 -115 -48 -126 -6 -11 -25 -62 -42 -112 -17 -51 -41 -118 -54 -149 -13 -32 -36 -93 -50 -137 -15 -44 -31 -88 -36 -97 -6 -10 -10 -27 -10 -37 0 -11 -4 -22 -9 -25 -13 -8 -108 -301 -116 -357 -11 -77 43 -150 125 -168 140 -30 434 -19 494 19 41 25 86 74 86 93 0 8 7 28 15 43 8 16 15 36 15 45 0 36 23 40 211 37 l183 -3 28 -74 c28 -76 62 -122 110 -146 15 -7 86 -19 156 -26 146 -14 342 -1 411 27 36 14 42 14 73 -3 29 -16 60 -18 275 -18 238 0 243 0 287 24 81 45 93 101 71 341 -18 213 -18 211 -1 204 12 -4 86 -148 86 -167 0 -3 11 -30 24 -59 13 -29 29 -69 35 -89 6 -20 20 -53 31 -74 11 -22 20 -47 20 -57 0 -30 68 -97 114 -110 27 -9 117 -13 271 -13 204 0 235 2 272 19 39 17 45 18 82 3 70 -28 243 -41 392 -28 150 12 191 27 227 81 23 34 23 40 21 253 -1 120 0 220 3 222 2 3 22 -28 43 -68 21 -39 43 -79 50 -87 6 -8 21 -33 32 -55 154 -305 166 -317 328 -341 163 -25 372 -13 442 24 29 16 59 15 86 -3 66 -43 482 -38 569 6 39 20 69 63 79 114 l6 30 2 -28 c1 -35 42 -90 86 -117 30 -19 49 -20 268 -20 269 0 285 4 331 73 l26 41 0 278 c0 153 3 278 8 278 4 0 15 -10 24 -22 36 -48 69 -95 96 -134 15 -23 41 -57 56 -75 15 -19 57 -72 92 -119 35 -47 78 -101 94 -121 17 -20 44 -56 60 -80 39 -59 88 -96 147 -110 27 -7 128 -12 228 -13 160 0 184 2 219 19 80 40 80 43 86 343 3 179 8 262 15 252 20 -31 45 -85 45 -97 0 -18 90 -163 101 -163 5 0 9 -6 9 -13 0 -22 109 -135 180 -187 123 -89 253 -142 417 -171 80 -13 367 -8 418 9 17 5 80 22 141 37 l112 27 68 -17 c112 -29 193 -30 247 -5 78 37 76 23 70 530 -2 245 -9 459 -14 476 -5 17 -23 44 -40 60 -29 28 -32 28 -167 32 -75 2 -141 8 -147 13 -6 6 12 31 46 67 154 158 208 293 160 397 -19 42 -126 165 -142 165 -6 0 -20 9 -32 21 -30 28 -177 101 -257 128 -107 35 -294 49 -440 34z m-3334 -1043 c-6 -475 -10 -507 -50 -427 -10 17 -37 64 -61 102 -25 39 -55 90 -69 115 -13 25 -37 63 -52 85 -44 64 -84 142 -84 162 0 10 24 42 52 72 45 49 103 130 121 171 4 8 11 22 16 30 5 8 24 47 41 85 17 39 36 78 41 87 5 10 9 26 9 37 0 11 6 21 13 24 23 8 29 -122 23 -543z m745 225 c7 -132 7 -233 -2 -380 -6 -110 -14 -252 -18 -315 -6 -95 -8 -55 -15 231 -9 360 0 744 16 679 4 -19 13 -116 19 -215z m-3111 187 c52 -20 70 -48 70 -110 0 -34 -6 -48 -26 -67 -24 -22 -36 -25 -110 -25 l-84 0 0 94 c0 52 3 101 6 110 8 22 85 20 144 -2z m5949 -52 c60 -22 114 -56 155 -99 30 -31 30 -30 -29 -62 -16 -9 -40 -34 -53 -55 -22 -37 -23 -45 -16 -159 4 -66 7 -145 8 -175 l1 -55 -70 -13 c-179 -34 -316 46 -344 202 -35 191 29 360 154 407 16 6 39 15 50 19 34 15 88 11 144 -10z m-5205 -357 c4 -16 2 -113 -4 -218 -5 -104 -10 -217 -10 -250 0 -59 0 -59 -17 -35 -21 29 -73 131 -73 143 0 4 -18 44 -40 88 -22 45 -40 87 -40 93 0 7 21 32 46 56 26 25 62 69 81 98 18 28 38 52 43 52 4 0 11 -12 14 -27z"/>
<path d="M1865 6170 c-155 -10 -193 -21 -227 -62 -38 -47 -41 -92 -26 -349 8 -148 12 -418 10 -793 -2 -607 -2 -615 47 -668 40 -45 75 -50 335 -52 226 -1 243 0 276 19 56 33 72 91 65 243 l-5 122 164 0 c194 0 274 16 406 81 96 48 183 124 236 207 19 29 34 54 34 57 0 2 13 32 29 67 44 95 62 180 68 318 4 118 0 159 -32 305 -4 17 -26 68 -48 114 -58 115 -179 238 -296 299 -46 23 -93 42 -105 42 -12 0 -26 4 -32 9 -5 5 -49 17 -99 25 -107 19 -612 29 -800 16z m631 -635 c49 -20 67 -68 62 -162 -5 -106 -19 -118 -140 -118 l-93 0 -6 30 c-9 40 -11 250 -2 258 12 13 144 7 179 -8z"/>
<path d="M6050 3326 c0 -13 4578 -3321 4595 -3321 15 0 1943 1391 4514 3257 l94 68 -4602 0 c-2530 0 -4601 -2 -4601 -4z"/>
</g>
</svg>
