<?xml version="1.0" standalone="no"?>
<!DOCTYPE svg PUBLIC "-//W3C//DTD SVG 20010904//EN"
 "http://www.w3.org/TR/2001/REC-SVG-20010904/DTD/svg10.dtd">
<svg version="1.0" xmlns="http://www.w3.org/2000/svg"
 width="640.000000pt" height="640.000000pt" viewBox="0 0 640.000000 640.000000"
 preserveAspectRatio="xMidYMid meet">

<g transform="translate(0.000000,640.000000) scale(0.100000,-0.100000)"
fill="#000000" stroke="none">
<path d="M0 3200 l0 -3200 3200 0 3200 0 0 3200 0 3200 -3200 0 -3200 0 0
-3200z m4787 1289 c79 -29 173 -123 197 -197 26 -77 20 -349 -9 -407 -27 -55
-110 -136 -170 -165 l-50 -25 -481 -3 -482 -3 -82 -247 c-45 -136 -85 -256
-90 -267 -5 -11 -13 -36 -19 -55 -32 -116 -464 -1388 -480 -1414 -29 -46 -84
-93 -144 -123 -44 -23 -66 -27 -137 -27 -74 -1 -100 5 -205 41 -171 58 -230
87 -271 130 -80 86 -112 179 -95 279 5 32 39 147 76 254 36 107 104 310 150
450 120 362 314 941 324 965 5 11 58 168 117 348 107 324 109 329 156 378 50
52 114 86 188 99 25 4 361 8 747 9 692 1 703 1 760 -20z m-1707 -8 c0 -5 -10
-13 -21 -16 -29 -9 -104 -79 -128 -119 -11 -17 -66 -169 -122 -336 -55 -168
-106 -311 -111 -317 -8 -10 -126 -12 -537 -10 l-526 2 -52 29 c-69 38 -124 94
-156 160 -26 52 -27 62 -27 205 0 127 3 159 20 205 28 73 87 138 162 175 l61
31 719 0 c437 0 718 -4 718 -9z m1353 -1129 c140 -63 207 -242 143 -384 -29
-65 -85 -124 -145 -152 -44 -20 -63 -21 -418 -24 -208 -1 -374 2 -377 6 -3 5
24 97 60 203 36 107 72 217 80 244 21 69 36 108 48 124 8 11 61 12 286 9 254
-4 279 -6 323 -26z m273 -1016 c84 -39 159 -123 182 -202 16 -55 15 -230 -1
-274 -33 -90 -94 -156 -185 -202 l-47 -23 -700 -3 c-384 -1 -705 0 -712 3 -11
4 -11 10 2 35 12 23 235 675 235 688 0 1 264 2 588 2 l587 0 51 -24z"/>
</g>
</svg>
