<?xml version="1.0" encoding="UTF-8"?>
<!DOCTYPE svg PUBLIC "-//W3C//DTD SVG 1.1//EN" "http://www.w3.org/Graphics/SVG/1.1/DTD/svg11.dtd">
<svg xmlns="http://www.w3.org/2000/svg" version="1.1" width="503px" height="681px" style="shape-rendering:geometricPrecision; text-rendering:geometricPrecision; image-rendering:optimizeQuality; fill-rule:evenodd; clip-rule:evenodd" xmlns:xlink="http://www.w3.org/1999/xlink">
<g><path style="opacity:1" fill="#fefdfd" d="M -0.5,-0.5 C 167.167,-0.5 334.833,-0.5 502.5,-0.5C 502.5,226.5 502.5,453.5 502.5,680.5C 334.833,680.5 167.167,680.5 -0.5,680.5C -0.5,453.5 -0.5,226.5 -0.5,-0.5 Z"/></g>
<g><path style="opacity:1" fill="#0c0c0c" d="M 247.5,28.5 C 269.716,29.0338 278.383,40.0338 273.5,61.5C 271.235,62.6474 268.902,62.8141 266.5,62C 273.171,51.4015 271.171,42.7349 260.5,36C 242.188,31.6499 233.688,38.8166 235,57.5C 235.635,58.9663 236.469,60.2997 237.5,61.5C 233.018,63.6177 230.185,62.2843 229,57.5C 227.339,42.6897 233.506,33.023 247.5,28.5 Z"/></g>
<g><path style="opacity:1" fill="#121212" d="M 247.5,37.5 C 258.767,35.7875 265.433,40.4542 267.5,51.5C 266.662,61.3568 261.328,65.0235 251.5,62.5C 251.5,60.8333 251.5,59.1667 251.5,57.5C 260.778,58.6241 264.278,54.6241 262,45.5C 260.992,43.741 259.492,42.5743 257.5,42C 253.514,41.5012 249.514,41.3345 245.5,41.5C 245.5,48.5 245.5,55.5 245.5,62.5C 243.278,62.822 241.444,62.1554 240,60.5C 235.414,50.4252 237.914,42.7586 247.5,37.5 Z"/></g>
<g><path style="opacity:1" fill="#f3f3f3" d="M 250.5,81.5 C 251.5,82.8333 252.5,82.8333 253.5,81.5C 261.99,82.6569 270.657,82.8236 279.5,82C 281.939,81.2261 283.773,79.7261 285,77.5C 285.333,65.8333 285.667,54.1667 286,42.5C 289.587,57.31 289.253,71.9766 285,86.5C 282.362,90.1283 278.862,92.6283 274.5,94C 260.5,96 246.5,96 232.5,94C 225.667,92.5 221.5,88.3333 220,81.5C 218.004,68.4397 218.338,55.4397 221,42.5C 221.333,54.1667 221.667,65.8333 222,77.5C 223.227,79.7261 225.061,81.2261 227.5,82C 235.345,82.8223 243.011,82.6557 250.5,81.5 Z"/></g>
<g><path style="opacity:1" fill="#060606" d="M 251.5,46.5 C 253.167,46.5 254.833,46.5 256.5,46.5C 256.5,48.5 256.5,50.5 256.5,52.5C 254.833,52.5 253.167,52.5 251.5,52.5C 251.5,50.5 251.5,48.5 251.5,46.5 Z"/></g>
<g><path style="opacity:1" fill="#343434" d="M 230.5,68.5 C 229.178,68.33 228.011,68.6634 227,69.5C 226.506,67.8659 226.34,66.1992 226.5,64.5C 229.5,64.1667 230.833,65.5 230.5,68.5 Z"/></g>
<g><path style="opacity:1" fill="#020202" d="M 261.5,67.5 C 260.778,67.9175 260.278,68.5842 260,69.5C 259.219,68.0563 259.386,66.723 260.5,65.5C 261.298,65.9569 261.631,66.6236 261.5,67.5 Z"/></g>
<g><path style="opacity:1" fill="#3f3f3f" d="M 250.5,64.5 C 252.153,65.6045 253.82,65.7712 255.5,65C 255.833,65.3333 256.167,65.6667 256.5,66C 255.044,66.4226 254.544,67.2559 255,68.5C 255.893,67.2888 256.726,67.2888 257.5,68.5C 254.388,69.9829 251.555,69.6496 249,67.5C 248.237,70.0635 247.737,70.0635 247.5,67.5C 247.824,65.4311 248.658,65.0977 250,66.5C 250.464,65.9056 250.631,65.2389 250.5,64.5 Z"/></g>
<g><path style="opacity:1" fill="#262626" d="M 269.5,66.5 C 269.5,67.1667 269.5,67.8333 269.5,68.5C 267.603,71.2331 266.27,70.8998 265.5,67.5C 266.27,64.1002 267.603,63.7669 269.5,66.5 Z"/></g>
<g><path style="opacity:1" fill="#4f4f4f" d="M 230.5,68.5 C 231.558,67.3998 232.392,66.0664 233,64.5C 233.915,65.3279 234.581,66.3279 235,67.5C 235.483,66.552 235.649,65.552 235.5,64.5C 236.833,64.5 238.167,64.5 239.5,64.5C 239.66,66.1992 239.494,67.8659 239,69.5C 238.667,69.1667 238.333,68.8333 238,68.5C 237.612,69.428 236.945,70.0946 236,70.5C 234.467,69.3047 232.967,69.3047 231.5,70.5C 230.702,70.0431 230.369,69.3764 230.5,68.5 Z"/></g>
<g><path style="opacity:1" fill="#ececec" d="M 266.5,66.5 C 268.337,66.6395 268.67,67.3061 267.5,68.5C 266.702,68.0431 266.369,67.3764 266.5,66.5 Z"/></g>
<g><path style="opacity:1" fill="#545454" d="M 240.5,64.5 C 243.857,65.1212 245.024,67.1212 244,70.5C 242.989,69.6634 241.822,69.33 240.5,69.5C 240.5,67.8333 240.5,66.1667 240.5,64.5 Z"/></g>
<g><path style="opacity:1" fill="#171717" d="M 261.5,67.5 C 263.818,64.9906 264.651,65.6573 264,69.5C 263.333,68.1667 262.667,68.1667 262,69.5C 261.536,68.9056 261.369,68.2389 261.5,67.5 Z"/></g>
<g><path style="opacity:1" fill="#444444" d="M 269.5,68.5 C 269.5,67.8333 269.5,67.1667 269.5,66.5C 270.156,65.7222 270.989,65.0556 272,64.5C 274.185,65.7585 276.352,65.7585 278.5,64.5C 280.217,65.6685 280.884,67.3352 280.5,69.5C 278.738,69.6427 277.071,69.3094 275.5,68.5C 273.353,71.0217 271.353,71.0217 269.5,68.5 Z"/></g>
<g><path style="opacity:1" fill="#5b5b5b" d="M 263.5,74.5 C 256.018,73.508 248.352,73.1746 240.5,73.5C 248.085,72.3479 256.419,72.1813 265.5,73C 264.956,73.7172 264.289,74.2172 263.5,74.5 Z"/></g>
<g><path style="opacity:1" fill="#0a0a0a" d="M 240.5,73.5 C 248.352,73.1746 256.018,73.508 263.5,74.5C 260.167,76.8333 256.833,79.1667 253.5,81.5C 252.5,82.8333 251.5,82.8333 250.5,81.5C 246.878,79.2133 243.545,76.5466 240.5,73.5 Z"/></g>
<g><path style="opacity:1" fill="#34262d" d="M 68.5,104.5 C 71.694,104.176 72.694,105.342 71.5,108C 70.2068,108.49 68.8734,108.657 67.5,108.5C 67.4326,107.041 67.7659,105.708 68.5,104.5 Z"/></g>
<g><path style="opacity:1" fill="#1d1920" d="M 299.5,104.5 C 301.912,104.694 302.912,106.027 302.5,108.5C 301.167,108.5 299.833,108.5 298.5,108.5C 298.433,107.041 298.766,105.708 299.5,104.5 Z"/></g>
<g><path style="opacity:1" fill="#1d1920" d="M 389.5,104.5 C 391.912,104.694 392.912,106.027 392.5,108.5C 391.167,108.5 389.833,108.5 388.5,108.5C 388.433,107.041 388.766,105.708 389.5,104.5 Z"/></g>
<g><path style="opacity:1" fill="#241f23" d="M 52.5,105.5 C 55.6492,105.211 58.6492,105.711 61.5,107C 63.0368,108.11 63.7035,109.61 63.5,111.5C 61.1103,111.145 58.777,110.478 56.5,109.5C 54.3772,109.22 53.0439,110.053 52.5,112C 56.2831,114.159 60.1164,116.326 64,118.5C 64.782,121.257 64.282,123.757 62.5,126C 56.9117,128.646 52.0784,127.813 48,123.5C 47.5172,122.552 47.3505,121.552 47.5,120.5C 50.4791,121.367 53.3124,122.7 56,124.5C 59.007,123.82 59.8403,122.154 58.5,119.5C 55.0436,118.845 51.8769,117.511 49,115.5C 47.5812,111.082 48.7478,107.749 52.5,105.5 Z"/></g>
<g><path style="opacity:1" fill="#1d1b21" d="M 217.5,105.5 C 222.167,105.5 226.833,105.5 231.5,105.5C 231.5,106.833 231.5,108.167 231.5,109.5C 228.167,109.5 224.833,109.5 221.5,109.5C 221.5,111.167 221.5,112.833 221.5,114.5C 224.5,114.5 227.5,114.5 230.5,114.5C 230.5,115.833 230.5,117.167 230.5,118.5C 227.5,118.5 224.5,118.5 221.5,118.5C 221.5,120.167 221.5,121.833 221.5,123.5C 224.833,123.5 228.167,123.5 231.5,123.5C 231.5,124.833 231.5,126.167 231.5,127.5C 226.833,127.5 222.167,127.5 217.5,127.5C 217.5,120.167 217.5,112.833 217.5,105.5 Z"/></g>
<g><path style="opacity:1" fill="#1f1923" d="M 93.5,107.5 C 94.8333,107.5 96.1667,107.5 97.5,107.5C 97.5,108.833 97.5,110.167 97.5,111.5C 98.5,111.5 99.5,111.5 100.5,111.5C 100.5,112.5 100.5,113.5 100.5,114.5C 99.5,114.5 98.5,114.5 97.5,114.5C 97.5,117.833 97.5,121.167 97.5,124.5C 98.5,124.5 99.5,124.5 100.5,124.5C 100.5,125.5 100.5,126.5 100.5,127.5C 97.9556,127.896 95.7889,127.229 94,125.5C 93.5014,121.848 93.3347,118.182 93.5,114.5C 92.5,114.5 91.5,114.5 90.5,114.5C 90.5,113.5 90.5,112.5 90.5,111.5C 91.5,111.5 92.5,111.5 93.5,111.5C 93.5,110.167 93.5,108.833 93.5,107.5 Z"/></g>
<g><path style="opacity:1" fill="#251b1b" d="M 252.5,107.5 C 253.833,107.5 255.167,107.5 256.5,107.5C 256.5,108.833 256.5,110.167 256.5,111.5C 257.5,111.5 258.5,111.5 259.5,111.5C 259.5,112.5 259.5,113.5 259.5,114.5C 258.5,114.5 257.5,114.5 256.5,114.5C 256.335,117.518 256.502,120.518 257,123.5C 258.011,124.337 259.178,124.67 260.5,124.5C 260.5,125.5 260.5,126.5 260.5,127.5C 258.473,127.662 256.473,127.495 254.5,127C 253.874,126.25 253.374,125.416 253,124.5C 252.928,120.469 252.094,116.636 250.5,113C 251.885,111.403 252.551,109.57 252.5,107.5 Z"/></g>
<g><path style="opacity:1" fill="#1d1817" d="M 433.5,107.5 C 434.833,107.5 436.167,107.5 437.5,107.5C 437.5,108.833 437.5,110.167 437.5,111.5C 438.5,111.5 439.5,111.5 440.5,111.5C 440.5,112.5 440.5,113.5 440.5,114.5C 439.5,114.5 438.5,114.5 437.5,114.5C 437.335,117.518 437.502,120.518 438,123.5C 439.706,124.308 440.539,125.641 440.5,127.5C 437.453,128.145 435.287,127.145 434,124.5C 433.928,120.469 433.094,116.636 431.5,113C 432.885,111.403 433.551,109.57 433.5,107.5 Z"/></g>
<g><path style="opacity:1" fill="#372930" d="M 67.5,111.5 C 69.1667,111.5 70.8333,111.5 72.5,111.5C 72.5,116.833 72.5,122.167 72.5,127.5C 70.8333,127.5 69.1667,127.5 67.5,127.5C 67.5,122.167 67.5,116.833 67.5,111.5 Z"/></g>
<g><path style="opacity:1" fill="#2a2224" d="M 79.5,110.5 C 82.7472,110.415 85.5806,111.415 88,113.5C 88.4317,114.6 87.9317,115.267 86.5,115.5C 84.1251,114.417 81.7917,114.417 79.5,115.5C 81.8638,117.096 84.5305,118.262 87.5,119C 90.2652,121.966 89.9318,124.633 86.5,127C 82.7559,127.929 79.2559,127.429 76,125.5C 75.5172,124.552 75.3505,123.552 75.5,122.5C 78.0895,122.396 80.4229,123.063 82.5,124.5C 84.0004,124.547 85.0004,123.881 85.5,122.5C 82.1998,121.456 79.0331,120.123 76,118.5C 74.7801,114.707 75.9468,112.04 79.5,110.5 Z"/></g>
<g><path style="opacity:1" fill="#272022" d="M 106.5,111.5 C 114.167,109.844 117.833,112.844 117.5,120.5C 114.167,120.5 110.833,120.5 107.5,120.5C 107.33,121.822 107.663,122.989 108.5,124C 110.938,124.682 113.105,124.182 115,122.5C 116.059,122.63 116.892,123.13 117.5,124C 112.518,128.774 107.685,128.608 103,123.5C 101.593,118.643 102.76,114.643 106.5,111.5 Z"/></g>
<g><path style="opacity:1" fill="#282125" d="M 128.5,110.5 C 130.929,110.585 132.929,111.585 134.5,113.5C 137.805,109.759 140.972,109.759 144,113.5C 144.499,118.155 144.666,122.821 144.5,127.5C 143.167,127.5 141.833,127.5 140.5,127.5C 140.666,123.486 140.499,119.486 140,115.5C 138.667,114.167 137.333,114.167 136,115.5C 135.501,119.486 135.334,123.486 135.5,127.5C 133.833,127.5 132.167,127.5 130.5,127.5C 130.5,123.167 130.5,118.833 130.5,114.5C 128.856,114.286 127.356,114.62 126,115.5C 125.501,119.486 125.334,123.486 125.5,127.5C 124.167,127.5 122.833,127.5 121.5,127.5C 121.5,122.167 121.5,116.833 121.5,111.5C 123.451,111.227 124.951,111.893 126,113.5C 127.045,112.627 127.878,111.627 128.5,110.5 Z"/></g>
<g><path style="opacity:1" fill="#2a201f" d="M 152.5,110.5 C 155.747,110.415 158.581,111.415 161,113.5C 161.499,118.155 161.666,122.821 161.5,127.5C 157.644,127.145 153.644,126.978 149.5,127C 146.833,124.333 146.833,121.667 149.5,119C 152.168,118.433 154.834,117.933 157.5,117.5C 157.5,116.5 157.5,115.5 157.5,114.5C 154.412,115.068 151.412,115.068 148.5,114.5C 149.549,112.784 150.882,111.451 152.5,110.5 Z"/></g>
<g><path style="opacity:1" fill="#281d1b" d="M 183.5,105.5 C 184.833,105.5 186.167,105.5 187.5,105.5C 187.5,112.833 187.5,120.167 187.5,127.5C 185.549,127.773 184.049,127.107 183,125.5C 178.882,128.592 175.549,127.925 173,123.5C 171.738,119.091 172.572,115.257 175.5,112C 178.379,111.043 180.879,111.543 183,113.5C 183.497,110.854 183.664,108.187 183.5,105.5 Z"/></g>
<g><path style="opacity:1" fill="#241f22" d="M 193.5,125.5 C 192.072,122.697 191.405,119.697 191.5,116.5C 195.378,109.606 200.212,108.939 206,114.5C 206.495,116.473 206.662,118.473 206.5,120.5C 202.774,120.177 199.107,120.511 195.5,121.5C 197.599,124.984 200.099,125.318 203,122.5C 204.067,123.191 205.234,123.691 206.5,124C 202.53,128.038 198.197,128.538 193.5,125.5 Z"/></g>
<g><path style="opacity:1" fill="#242125" d="M 240.5,110.5 C 243.374,110.623 245.874,111.623 248,113.5C 248.432,114.6 247.932,115.267 246.5,115.5C 244.125,114.417 241.792,114.417 239.5,115.5C 241.955,117.492 244.788,118.826 248,119.5C 249.212,122.834 248.379,125.334 245.5,127C 240.853,128.48 237.187,127.314 234.5,123.5C 235.167,123.167 235.833,122.833 236.5,122.5C 238.902,124.049 241.568,124.716 244.5,124.5C 244.5,123.5 244.5,122.5 244.5,121.5C 238.101,122.262 235.267,119.595 236,113.5C 237.409,112.219 238.909,111.219 240.5,110.5 Z"/></g>
<g><path style="opacity:1" fill="#221d25" d="M 265.5,111.5 C 269.257,111.071 272.757,111.737 276,113.5C 276.499,118.155 276.666,122.821 276.5,127.5C 274.549,127.773 273.049,127.107 272,125.5C 264.807,129.465 261.973,127.465 263.5,119.5C 266.333,118.067 269.333,117.4 272.5,117.5C 272.5,116.5 272.5,115.5 272.5,114.5C 269.103,115.192 265.77,115.192 262.5,114.5C 263.77,113.712 264.77,112.712 265.5,111.5 Z"/></g>
<g><path style="opacity:1" fill="#221d23" d="M 283.5,111.5 C 287.257,111.071 290.757,111.737 294,113.5C 294.483,114.448 294.649,115.448 294.5,116.5C 291.514,115.645 288.514,115.145 285.5,115C 283.964,118.24 284.297,121.24 286.5,124C 288.906,124.779 290.573,123.946 291.5,121.5C 295.204,123.031 295.204,124.864 291.5,127C 281.902,128.389 278.402,124.222 281,114.5C 282.045,113.627 282.878,112.627 283.5,111.5 Z"/></g>
<g><path style="opacity:1" fill="#18171e" d="M 298.5,111.5 C 299.833,111.5 301.167,111.5 302.5,111.5C 302.5,116.833 302.5,122.167 302.5,127.5C 301.167,127.5 299.833,127.5 298.5,127.5C 298.5,122.167 298.5,116.833 298.5,111.5 Z"/></g>
<g><path style="opacity:1" fill="#261f25" d="M 309.5,111.5 C 318.364,110.152 322.197,113.819 321,122.5C 318.565,127.224 314.731,128.724 309.5,127C 304.208,121.835 304.208,116.668 309.5,111.5 Z"/></g>
<g><path style="opacity:1" fill="#2b2128" d="M 324.5,111.5 C 326.451,111.227 327.951,111.893 329,113.5C 332.333,110.833 335.667,110.833 339,113.5C 339.499,118.155 339.666,122.821 339.5,127.5C 338.167,127.5 336.833,127.5 335.5,127.5C 335.666,123.486 335.499,119.486 335,115.5C 333.333,114.167 331.667,114.167 330,115.5C 329.501,119.486 329.334,123.486 329.5,127.5C 327.833,127.5 326.167,127.5 324.5,127.5C 324.5,122.167 324.5,116.833 324.5,111.5 Z"/></g>
<g><path style="opacity:1" fill="#2a201f" d="M 347.5,110.5 C 350.747,110.415 353.581,111.415 356,113.5C 356.499,118.155 356.666,122.821 356.5,127.5C 352.644,127.145 348.644,126.978 344.5,127C 341.833,124.333 341.833,121.667 344.5,119C 347.168,118.433 349.834,117.933 352.5,117.5C 352.5,116.5 352.5,115.5 352.5,114.5C 349.412,115.068 346.412,115.068 343.5,114.5C 344.549,112.784 345.882,111.451 347.5,110.5 Z"/></g>
<g><path style="opacity:1" fill="#2d232c" d="M 368.5,110.5 C 370.903,110.393 372.736,111.393 374,113.5C 377.333,109.5 380.667,109.5 384,113.5C 384.499,118.155 384.666,122.821 384.5,127.5C 383.167,127.5 381.833,127.5 380.5,127.5C 380.666,123.486 380.499,119.486 380,115.5C 378.333,114.167 376.667,114.167 375,115.5C 374.501,119.486 374.334,123.486 374.5,127.5C 373.167,127.5 371.833,127.5 370.5,127.5C 370.666,123.486 370.499,119.486 370,115.5C 368.667,114.167 367.333,114.167 366,115.5C 365.501,119.486 365.334,123.486 365.5,127.5C 363.833,127.5 362.167,127.5 360.5,127.5C 360.5,122.167 360.5,116.833 360.5,111.5C 362.451,111.227 363.951,111.893 365,113.5C 366.145,112.364 367.312,111.364 368.5,110.5 Z"/></g>
<g><path style="opacity:1" fill="#18171e" d="M 388.5,111.5 C 389.833,111.5 391.167,111.5 392.5,111.5C 392.5,116.833 392.5,122.167 392.5,127.5C 391.167,127.5 389.833,127.5 388.5,127.5C 388.5,122.167 388.5,116.833 388.5,111.5 Z"/></g>
<g><path style="opacity:1" fill="#272022" d="M 399.5,111.5 C 407.167,109.844 410.833,112.844 410.5,120.5C 407.167,120.5 403.833,120.5 400.5,120.5C 400.33,121.822 400.663,122.989 401.5,124C 403.938,124.682 406.105,124.182 408,122.5C 409.059,122.63 409.892,123.13 410.5,124C 405.518,128.774 400.685,128.608 396,123.5C 394.593,118.643 395.76,114.643 399.5,111.5 Z"/></g>
<g><path style="opacity:1" fill="#292229" d="M 422.5,110.5 C 425.263,110.744 427.429,112.077 429,114.5C 429.499,118.821 429.666,123.154 429.5,127.5C 427.833,127.5 426.167,127.5 424.5,127.5C 424.666,123.486 424.499,119.486 424,115.5C 422.542,114.253 421.042,114.253 419.5,115.5C 418.509,119.445 418.176,123.445 418.5,127.5C 417.167,127.5 415.833,127.5 414.5,127.5C 414.5,122.167 414.5,116.833 414.5,111.5C 416.451,111.227 417.951,111.893 419,113.5C 420.145,112.364 421.312,111.364 422.5,110.5 Z"/></g>
<g><path style="opacity:1" fill="#201c24" d="M 446.5,111.5 C 456.33,109.829 460.163,113.829 458,123.5C 454.222,127.93 449.888,128.597 445,125.5C 442.622,120.406 443.122,115.739 446.5,111.5 Z"/></g>
<g><path style="opacity:1" fill="#fbfcf6" d="M 108.5,114.5 C 110.665,114.116 112.332,114.783 113.5,116.5C 111.5,117.833 109.5,117.833 107.5,116.5C 107.863,115.817 108.196,115.15 108.5,114.5 Z"/></g>
<g><path style="opacity:1" fill="#eaeeef" d="M 178.5,114.5 C 180.144,114.286 181.644,114.62 183,115.5C 183.667,117.833 183.667,120.167 183,122.5C 178.907,125.448 176.74,124.281 176.5,119C 176.759,117.213 177.425,115.713 178.5,114.5 Z"/></g>
<g><path style="opacity:1" fill="#eeeeeb" d="M 196.5,114.5 C 198.977,114.051 200.977,114.717 202.5,116.5C 200.167,117.833 197.833,117.833 195.5,116.5C 195.863,115.817 196.196,115.15 196.5,114.5 Z"/></g>
<g><path style="opacity:1" fill="#f3eae1" d="M 311.5,114.5 C 316.989,114.504 318.822,117.171 317,122.5C 315.267,124.602 313.267,124.935 311,123.5C 310.264,120.408 310.431,117.408 311.5,114.5 Z"/></g>
<g><path style="opacity:1" fill="#fbfcf6" d="M 401.5,114.5 C 403.665,114.116 405.332,114.783 406.5,116.5C 404.5,117.833 402.5,117.833 400.5,116.5C 400.863,115.817 401.196,115.15 401.5,114.5 Z"/></g>
<g><path style="opacity:1" fill="#f8f1e8" d="M 448.5,114.5 C 453.989,114.504 455.822,117.171 454,122.5C 452,125.167 450,125.167 448,122.5C 447.278,119.739 447.445,117.073 448.5,114.5 Z"/></g>
<g><path style="opacity:1" fill="#e7edef" d="M 152.5,120.5 C 154.167,120.5 155.833,120.5 157.5,120.5C 157.241,124.068 155.241,125.401 151.5,124.5C 151.433,123.041 151.766,121.708 152.5,120.5 Z"/></g>
<g><path style="opacity:1" fill="#f6ebdf" d="M 267.5,120.5 C 269.167,120.5 270.833,120.5 272.5,120.5C 272.241,124.068 270.241,125.401 266.5,124.5C 266.433,123.041 266.766,121.708 267.5,120.5 Z"/></g>
<g><path style="opacity:1" fill="#e7edef" d="M 347.5,120.5 C 349.167,120.5 350.833,120.5 352.5,120.5C 352.241,124.068 350.241,125.401 346.5,124.5C 346.433,123.041 346.766,121.708 347.5,120.5 Z"/></g>
<g><path style="opacity:1" fill="#e8b57b" d="M 191.5,116.5 C 191.405,119.697 192.072,122.697 193.5,125.5C 192.069,125.119 191.236,124.119 191,122.5C 190.211,120.288 190.378,118.288 191.5,116.5 Z"/></g>
<g><path style="opacity:1" fill="#68677a" d="M 126.5,149.5 C 129.061,148.169 131.561,148.502 134,150.5C 133.496,152.862 133.663,155.195 134.5,157.5C 134.547,159.038 133.88,160.038 132.5,160.5C 131.432,159.566 130.099,159.232 128.5,159.5C 129.568,158.566 130.901,158.232 132.5,158.5C 132.5,157.5 132.5,156.5 132.5,155.5C 132.5,154.833 132.5,154.167 132.5,153.5C 132.5,152.5 132.5,151.5 132.5,150.5C 130.833,150.5 129.167,150.5 127.5,150.5C 127.5,149.833 127.167,149.5 126.5,149.5 Z"/></g>
<g><path style="opacity:1" fill="#f0f5ed" d="M 127.5,150.5 C 129.167,150.5 130.833,150.5 132.5,150.5C 132.5,151.5 132.5,152.5 132.5,153.5C 130.833,153.5 129.167,153.5 127.5,153.5C 127.5,152.5 127.5,151.5 127.5,150.5 Z"/></g>
<g><path style="opacity:1" fill="#443849" d="M 156.5,151.5 C 159.183,151.227 160.683,152.227 161,154.5C 157.244,152.178 155.244,153.511 155,158.5C 154.167,155.829 154.667,153.496 156.5,151.5 Z"/></g>
<g><path style="opacity:1" fill="#4a3636" d="M 169.5,152.5 C 169.795,154.735 169.461,156.735 168.5,158.5C 167.64,156.03 166.306,155.863 164.5,158C 165.563,159.188 166.897,159.688 168.5,159.5C 169.167,159.5 169.5,159.833 169.5,160.5C 167.801,160.66 166.134,160.494 164.5,160C 163.167,158.667 163.167,157.333 164.5,156C 165.938,155.781 167.271,155.281 168.5,154.5C 168.192,153.692 167.692,153.025 167,152.5C 165.16,153.833 164.66,153.666 165.5,152C 166.928,151.421 168.262,151.588 169.5,152.5 Z"/></g>
<g><path style="opacity:1" fill="#443849" d="M 207.5,151.5 C 210.183,151.227 211.683,152.227 212,154.5C 208.244,152.178 206.244,153.511 206,158.5C 205.167,155.829 205.667,153.496 207.5,151.5 Z"/></g>
<g><path style="opacity:1" fill="#57414d" d="M 225.5,151.5 C 228.833,151.5 230.5,153.167 230.5,156.5C 228.396,156.201 226.396,156.534 224.5,157.5C 225.748,159.69 227.414,160.023 229.5,158.5C 230.696,158.846 230.696,159.346 229.5,160C 225.492,161.416 223.159,160.082 222.5,156C 222.557,153.791 223.557,152.291 225.5,151.5 Z"/></g>
<g><path style="opacity:1" fill="#3f3149" d="M 298.5,153.5 C 300.92,158.82 299.254,160.987 293.5,160C 292.223,157.534 292.223,155.034 293.5,152.5C 295.62,150.991 297.287,151.324 298.5,153.5 Z"/></g>
<g><path style="opacity:1" fill="#493d4f" d="M 312.5,159.5 C 311.427,158.749 311.26,157.749 312,156.5C 313.509,155.91 315.009,155.244 316.5,154.5C 315.318,152.355 313.818,152.355 312,154.5C 313.174,151.128 315.174,150.795 318,153.5C 318.497,155.81 318.663,158.143 318.5,160.5C 316.265,160.795 314.265,160.461 312.5,159.5 Z"/></g>
<g><path style="opacity:1" fill="#534b50" d="M 350.5,153.5 C 349.504,153.586 348.671,153.252 348,152.5C 347.292,153.381 346.458,154.047 345.5,154.5C 345.5,153.833 345.5,153.167 345.5,152.5C 347.586,150.977 349.252,151.31 350.5,153.5 Z"/></g>
<g><path style="opacity:1" fill="#622922" d="M 136.5,151.5 C 137.314,153.631 137.814,155.964 138,158.5C 139.067,159.191 140.234,159.691 141.5,160C 139.888,160.72 138.388,160.554 137,159.5C 136.503,156.854 136.336,154.187 136.5,151.5 Z"/></g>
<g><path style="opacity:1" fill="#622922" d="M 182.5,151.5 C 183.314,153.631 183.814,155.964 184,158.5C 185.067,159.191 186.234,159.691 187.5,160C 185.888,160.72 184.388,160.554 183,159.5C 182.503,156.854 182.336,154.187 182.5,151.5 Z"/></g>
<g><path style="opacity:1" fill="#542f26" d="M 260.5,159.5 C 261.833,157.167 261.833,154.833 260.5,152.5C 261.117,152.389 261.617,152.056 262,151.5C 262.499,155.486 262.666,159.486 262.5,163.5C 260.396,163.799 258.396,163.466 256.5,162.5C 257.887,162.193 259.554,162.193 261.5,162.5C 261.737,161.209 261.404,160.209 260.5,159.5 Z"/></g>
<g><path style="opacity:1" fill="#6e6f99" d="M 288.5,151.5 C 289.765,152.514 290.431,154.014 290.5,156C 290.167,157.5 289.833,159 289.5,160.5C 288.516,157.572 288.183,154.572 288.5,151.5 Z"/></g>
<g><path style="opacity:1" fill="#291d54" d="M 334.5,159.5 C 333.458,160.791 332.292,160.791 331,159.5C 330.333,156.833 330.333,154.167 331,151.5C 331.333,153.833 331.667,156.167 332,158.5C 332.671,159.252 333.504,159.586 334.5,159.5 Z"/></g>
<g><path style="opacity:1" fill="#84391b" d="M 334.5,159.5 C 335.228,156.921 335.728,154.254 336,151.5C 336.667,154.5 336.667,157.5 336,160.5C 335.617,159.944 335.117,159.611 334.5,159.5 Z"/></g>
<g><path style="opacity:1" fill="#39364b" d="M 358.5,152.5 C 357.153,153.028 355.819,153.195 354.5,153C 355.818,151.37 357.151,151.203 358.5,152.5 Z"/></g>
<g><path style="opacity:1" fill="#561d1c" d="M 179.5,152.5 C 178.532,154.607 178.198,156.941 178.5,159.5C 177.79,157.107 177.123,154.607 176.5,152C 177.126,151.25 177.626,150.416 178,149.5C 178.5,150.667 179.333,151.5 180.5,152C 180.272,152.399 179.938,152.565 179.5,152.5 Z"/></g>
<g><path style="opacity:1" fill="#548dc1" d="M 179.5,152.5 C 179.232,155.119 179.565,157.619 180.5,160C 179.563,160.692 178.897,160.525 178.5,159.5C 178.198,156.941 178.532,154.607 179.5,152.5 Z"/></g>
<g><path style="opacity:1" fill="#a1571c" d="M 197.5,149.5 C 197.5,152.833 197.5,156.167 197.5,159.5C 196.79,157.107 196.123,154.607 195.5,152C 196.066,151.005 196.733,150.172 197.5,149.5 Z"/></g>
<g><path style="opacity:1" fill="#304c83" d="M 197.5,149.5 C 199.483,151.202 199.816,153.368 198.5,156C 198.675,157.658 199.342,158.991 200.5,160C 199.251,160.74 198.251,160.573 197.5,159.5C 197.5,156.167 197.5,152.833 197.5,149.5 Z"/></g>
<g><path style="opacity:1" fill="#f7fcf7" d="M 224.5,153.5 C 225.978,153.238 227.311,153.571 228.5,154.5C 227.833,154.833 227.167,155.167 226.5,155.5C 225.287,155.253 224.62,154.586 224.5,153.5 Z"/></g>
<g><path style="opacity:1" fill="#a1571c" d="M 233.5,149.5 C 233.5,152.833 233.5,156.167 233.5,159.5C 232.79,157.107 232.123,154.607 231.5,152C 232.066,151.005 232.733,150.172 233.5,149.5 Z"/></g>
<g><path style="opacity:1" fill="#304c83" d="M 233.5,149.5 C 235.483,151.202 235.816,153.368 234.5,156C 234.675,157.658 235.342,158.991 236.5,160C 235.251,160.74 234.251,160.573 233.5,159.5C 233.5,156.167 233.5,152.833 233.5,149.5 Z"/></g>
<g><path style="opacity:1" fill="#e0e3e2" d="M 260.5,152.5 C 261.833,154.833 261.833,157.167 260.5,159.5C 259.167,159.167 257.833,158.833 256.5,158.5C 255.891,155.122 257.224,153.122 260.5,152.5 Z"/></g>
<g><path style="opacity:1" fill="#561d1c" d="M 285.5,152.5 C 284.532,154.607 284.198,156.941 284.5,159.5C 283.79,157.107 283.123,154.607 282.5,152C 283.126,151.25 283.626,150.416 284,149.5C 284.5,150.667 285.333,151.5 286.5,152C 286.272,152.399 285.938,152.565 285.5,152.5 Z"/></g>
<g><path style="opacity:1" fill="#548dc1" d="M 285.5,152.5 C 285.232,155.119 285.565,157.619 286.5,160C 285.563,160.692 284.897,160.525 284.5,159.5C 284.198,156.941 284.532,154.607 285.5,152.5 Z"/></g>
<g><path style="opacity:1" fill="#f2ecdf" d="M 298.5,153.5 C 298.66,155.199 298.494,156.866 298,158.5C 296.951,159.517 295.784,159.684 294.5,159C 293.24,157.186 293.24,155.353 294.5,153.5C 295.726,152.637 297.06,152.637 298.5,153.5 Z"/></g>
<g><path style="opacity:1" fill="#381b34" d="M 325.5,149.5 C 326.309,150.469 327.309,151.302 328.5,152C 326.862,154.133 326.029,156.633 326,159.5C 325.774,156.905 325.274,154.405 324.5,152C 325.252,151.329 325.586,150.496 325.5,149.5 Z"/></g>
<g><path style="opacity:1" fill="#efeee1" d="M 350.5,153.5 C 351.401,157.241 350.068,159.241 346.5,159.5C 345.699,157.958 345.366,156.292 345.5,154.5C 346.458,154.047 347.292,153.381 348,152.5C 348.671,153.252 349.504,153.586 350.5,153.5 Z"/></g>
<g><path style="opacity:1" fill="#eaefeb" d="M 367.5,152.5 C 368.833,154.833 368.833,157.167 367.5,159.5C 365.278,159.441 364.278,158.275 364.5,156C 364.278,153.725 365.278,152.559 367.5,152.5 Z"/></g>
<g><path style="opacity:1" fill="#272631" d="M 126.5,149.5 C 127.167,149.5 127.5,149.833 127.5,150.5C 127.5,151.5 127.5,152.5 127.5,153.5C 129.167,153.5 130.833,153.5 132.5,153.5C 132.5,154.167 132.5,154.833 132.5,155.5C 130.833,155.5 129.167,155.5 127.5,155.5C 127.232,157.099 127.566,158.432 128.5,159.5C 130.099,159.232 131.432,159.566 132.5,160.5C 130.5,160.5 128.5,160.5 126.5,160.5C 126.5,156.833 126.5,153.167 126.5,149.5 Z"/></g>
<g><path style="opacity:1" fill="#674b64" d="M 242.5,151.5 C 243.931,152.78 244.598,154.447 244.5,156.5C 245.675,156.281 246.675,156.614 247.5,157.5C 246.833,159.167 246.167,160.833 245.5,162.5C 244.635,163.583 243.635,163.749 242.5,163C 243.516,162.481 244.182,161.647 244.5,160.5C 243.414,157.58 242.748,154.58 242.5,151.5 Z"/></g>
<g><path style="opacity:1" fill="#1d1a5a" d="M 304.5,152.5 C 303.772,155.079 303.272,157.746 303,160.5C 302.333,157.5 302.333,154.5 303,151.5C 303.383,152.056 303.883,152.389 304.5,152.5 Z"/></g>
<g><path style="opacity:1" fill="#803823" d="M 304.5,152.5 C 305.542,151.209 306.708,151.209 308,152.5C 308.667,155.167 308.667,157.833 308,160.5C 307.667,158.167 307.333,155.833 307,153.5C 306.329,152.748 305.496,152.414 304.5,152.5 Z"/></g>
<g><path style="opacity:1" fill="#3d5fa6" d="M 377.5,152.5 C 378.496,152.414 379.329,152.748 380,153.5C 380.667,155.167 380.667,156.833 380,158.5C 379.764,156.189 378.931,154.189 377.5,152.5 Z"/></g>
<g><path style="opacity:1" fill="#eaf5f6" d="M 132.5,155.5 C 132.5,156.5 132.5,157.5 132.5,158.5C 130.901,158.232 129.568,158.566 128.5,159.5C 127.566,158.432 127.232,157.099 127.5,155.5C 129.167,155.5 130.833,155.5 132.5,155.5 Z"/></g>
<g><path style="opacity:1" fill="#363249" d="M 147.5,151.5 C 148.552,151.351 149.552,151.517 150.5,152C 149.328,152.419 148.328,153.085 147.5,154C 149.67,154.811 151.337,156.145 152.5,158C 151.591,160.319 149.925,160.986 147.5,160C 148.448,159.517 149.448,159.351 150.5,159.5C 150.5,158.5 150.5,157.5 150.5,156.5C 146.716,156.475 145.716,154.808 147.5,151.5 Z"/></g>
<g><path style="opacity:1" fill="#244493" d="M 169.5,152.5 C 170.833,155.167 170.833,157.833 169.5,160.5C 169.5,159.833 169.167,159.5 168.5,159.5C 168.5,159.167 168.5,158.833 168.5,158.5C 169.461,156.735 169.795,154.735 169.5,152.5 Z"/></g>
<g><path style="opacity:1" fill="#5f415e" d="M 214.5,148.5 C 215.674,153.113 217.508,156.779 220,159.5C 219,158.5 218,157.5 217,156.5C 216.781,157.938 216.281,159.271 215.5,160.5C 214.509,156.555 214.176,152.555 214.5,148.5 Z"/></g>
<g><path style="opacity:1" fill="#33242c" d="M 271.5,153.5 C 272.404,154.209 272.737,155.209 272.5,156.5C 269.921,156.083 267.754,156.75 266,158.5C 264.523,154.002 266.023,151.835 270.5,152C 271.056,152.383 271.389,152.883 271.5,153.5 Z"/></g>
<g><path style="opacity:1" fill="#efede3" d="M 271.5,153.5 C 271.209,154.649 270.376,155.316 269,155.5C 266.118,155.235 266.118,154.235 269,152.5C 269.671,153.252 270.504,153.586 271.5,153.5 Z"/></g>
<g><path style="opacity:1" fill="#41353a" d="M 276.5,151.5 C 278.103,151.312 279.437,151.812 280.5,153C 279.551,153.617 278.718,153.451 278,152.5C 277.308,153.025 276.808,153.692 276.5,154.5C 279.824,155.159 281.157,157.159 280.5,160.5C 274.676,160.653 274.343,159.987 279.5,158.5C 278.68,156.889 277.346,156.222 275.5,156.5C 275.366,154.708 275.699,153.042 276.5,151.5 Z"/></g>
<g><path style="opacity:1" fill="#1c1a52" d="M 345.5,152.5 C 345.5,153.167 345.5,153.833 345.5,154.5C 345.366,156.292 345.699,157.958 346.5,159.5C 345.71,160.609 345.21,161.942 345,163.5C 344.192,159.062 344.359,155.396 345.5,152.5 Z"/></g>
<g><path style="opacity:1" fill="#37252f" d="M 358.5,152.5 C 359.748,153.334 360.415,154.667 360.5,156.5C 360.333,157.833 360.167,159.167 360,160.5C 359.617,159.944 359.117,159.611 358.5,159.5C 354.531,161.341 353.197,160.175 354.5,156C 356.256,155.798 357.922,155.298 359.5,154.5C 359.137,153.817 358.804,153.15 358.5,152.5 Z"/></g>
<g><path style="opacity:1" fill="#3e406c" d="M 367.5,152.5 C 365.278,152.559 364.278,153.725 364.5,156C 364.278,158.275 365.278,159.441 367.5,159.5C 364.432,160.957 363.099,159.79 363.5,156C 363.099,152.21 364.432,151.043 367.5,152.5 Z"/></g>
<g><path style="opacity:1" fill="#754d4e" d="M 367.5,159.5 C 368.833,157.167 368.833,154.833 367.5,152.5C 368.496,152.586 369.329,152.252 370,151.5C 370.667,155.167 370.667,158.833 370,162.5C 367.861,163.769 365.695,163.769 363.5,162.5C 364.887,162.193 366.554,162.193 368.5,162.5C 368.737,161.209 368.404,160.209 367.5,159.5 Z"/></g>
<g><path style="opacity:1" fill="#522b2f" d="M 260.5,152.5 C 257.224,153.122 255.891,155.122 256.5,158.5C 254.771,155.351 255.605,153.018 259,151.5C 259.765,151.57 260.265,151.903 260.5,152.5 Z"/></g>
<g><path style="opacity:1" fill="#f3e5d5" d="M 358.5,159.5 C 357.5,159.5 356.5,159.5 355.5,159.5C 355.5,158.5 355.5,157.5 355.5,156.5C 358.567,156.121 359.567,157.121 358.5,159.5 Z"/></g>
<g><path style="opacity:1" fill="#52272c" d="M 377.5,152.5 C 374.351,153.16 372.851,155.16 373,158.5C 371.671,153.697 373.171,151.697 377.5,152.5 Z"/></g>
<g><path style="opacity:1" fill="#ebf0ef" d="M 168.5,158.5 C 168.5,158.833 168.5,159.167 168.5,159.5C 166.897,159.688 165.563,159.188 164.5,158C 166.306,155.863 167.64,156.03 168.5,158.5 Z"/></g>
<g><path style="opacity:1" fill="#e7f3ef" d="M 312.5,159.5 C 312.834,156.725 314.167,156.059 316.5,157.5C 315.68,159.111 314.346,159.778 312.5,159.5 Z"/></g>
<g><path style="opacity:1" fill="#3b3152" d="M 350.5,153.5 C 351.622,155.288 351.789,157.288 351,159.5C 349.384,160.801 347.884,160.801 346.5,159.5C 350.068,159.241 351.401,157.241 350.5,153.5 Z"/></g>
<g><path style="opacity:1" fill="#38324e" d="M 159.5,158.5 C 161.379,158.393 161.712,158.893 160.5,160C 159.167,160.667 157.833,160.667 156.5,160C 157.737,159.768 158.737,159.268 159.5,158.5 Z"/></g>
<g><path style="opacity:1" fill="#38324e" d="M 210.5,158.5 C 212.379,158.393 212.712,158.893 211.5,160C 210.167,160.667 208.833,160.667 207.5,160C 208.737,159.768 209.737,159.268 210.5,158.5 Z"/></g>
<g><path style="opacity:1" fill="#3b3644" d="M 256.5,158.5 C 257.833,158.833 259.167,159.167 260.5,159.5C 258.872,160.853 257.538,160.519 256.5,158.5 Z"/></g>
<g><path style="opacity:1" fill="#f5f5f5" d="M 51.5,540.5 C 51.0618,540.435 50.7284,540.601 50.5,541C 54.3721,543.702 58.7055,545.035 63.5,545C 190.167,545.667 316.833,545.667 443.5,545C 448.295,545.035 452.628,543.702 456.5,541C 456.272,540.601 455.938,540.435 455.5,540.5C 457.761,539.41 459.594,537.744 461,535.5C 461.333,427.833 461.667,320.167 462,212.5C 463.106,217.769 463.773,223.103 464,228.5C 464.667,329.167 464.667,429.833 464,530.5C 464.308,546.439 456.475,553.939 440.5,553C 315.833,553.667 191.167,553.667 66.5,553C 50.5251,553.939 42.6918,546.439 43,530.5C 42.3333,429.833 42.3333,329.167 43,228.5C 43.2272,223.103 43.8938,217.769 45,212.5C 45.3333,320.167 45.6667,427.833 46,535.5C 47.4055,537.744 49.2389,539.41 51.5,540.5 Z"/></g>
<g><path style="opacity:1" fill="#3a3d4f" d="M 273.5,228.5 C 276.957,228.667 277.29,229.667 274.5,231.5C 273.614,230.675 273.281,229.675 273.5,228.5 Z"/></g>
<g><path style="opacity:1" fill="#2c232f" d="M 190.5,228.5 C 193.607,228.351 196.607,228.851 199.5,230C 200.935,232.267 200.602,234.267 198.5,236C 202.037,237.826 202.371,240.16 199.5,243C 196.518,243.498 193.518,243.665 190.5,243.5C 190.5,238.5 190.5,233.5 190.5,228.5 Z"/></g>
<g><path style="opacity:1" fill="#2d2d38" d="M 259.5,228.5 C 263.5,228.5 267.5,228.5 271.5,228.5C 271.5,229.5 271.5,230.5 271.5,231.5C 270.167,231.5 268.833,231.5 267.5,231.5C 267.5,235.5 267.5,239.5 267.5,243.5C 266.5,243.5 265.5,243.5 264.5,243.5C 264.5,239.5 264.5,235.5 264.5,231.5C 262.833,231.5 261.167,231.5 259.5,231.5C 259.5,230.5 259.5,229.5 259.5,228.5 Z"/></g>
<g><path style="opacity:1" fill="#2b2937" d="M 289.5,228.5 C 290.5,228.5 291.5,228.5 292.5,228.5C 292.336,231.187 292.503,233.854 293,236.5C 293.869,233.606 295.702,232.439 298.5,233C 297.624,234.586 296.624,236.086 295.5,237.5C 296.711,239.422 298.044,241.255 299.5,243C 298.056,243.781 296.723,243.614 295.5,242.5C 293.608,238.53 292.608,238.863 292.5,243.5C 291.5,243.5 290.5,243.5 289.5,243.5C 289.5,238.5 289.5,233.5 289.5,228.5 Z"/></g>
<g><path style="opacity:1" fill="#382425" d="M 311.5,229.5 C 312.5,229.5 313.5,229.5 314.5,229.5C 314.48,231.143 315.147,232.476 316.5,233.5C 313.833,236.5 313.833,239.5 316.5,242.5C 314.994,243.747 313.494,243.747 312,242.5C 311.064,238.089 310.898,233.755 311.5,229.5 Z"/></g>
<g><path style="opacity:1" fill="#ecf0e8" d="M 193.5,231.5 C 194.833,231.5 196.167,231.5 197.5,231.5C 197.833,234.5 196.5,235.833 193.5,235.5C 193.5,234.167 193.5,232.833 193.5,231.5 Z"/></g>
<g><path style="opacity:1" fill="#201a19" d="M 209.5,241.5 C 208.068,243.647 206.235,243.98 204,242.5C 203.176,239.118 203.343,235.784 204.5,232.5C 205.318,235.107 205.818,237.774 206,240.5C 207.011,241.337 208.178,241.67 209.5,241.5 Z"/></g>
<g><path style="opacity:1" fill="#1a1717" d="M 209.5,241.5 C 210.084,238.527 210.751,235.527 211.5,232.5C 212.833,236.167 212.833,239.833 211.5,243.5C 210.818,242.757 210.151,242.091 209.5,241.5 Z"/></g>
<g><path style="opacity:1" fill="#252128" d="M 216.5,232.5 C 219.157,232.162 221.49,232.829 223.5,234.5C 221.576,234.567 219.576,234.9 217.5,235.5C 219.49,236.873 221.657,237.873 224,238.5C 224.711,240.367 224.211,241.867 222.5,243C 220.231,243.758 218.064,243.591 216,242.5C 215.312,241.668 215.479,241.002 216.5,240.5C 218.198,241.681 219.865,241.681 221.5,240.5C 216.399,239.766 214.733,237.1 216.5,232.5 Z"/></g>
<g><path style="opacity:1" fill="#322530" d="M 228.5,232.5 C 231.463,232.151 233.796,233.151 235.5,235.5C 233.27,235.708 231.104,235.708 229,235.5C 227.642,241.157 229.308,242.491 234,239.5C 235.726,240.648 235.559,241.815 233.5,243C 227.204,243.698 224.704,240.865 226,234.5C 226.995,233.934 227.828,233.267 228.5,232.5 Z"/></g>
<g><path style="opacity:1" fill="#33252e" d="M 239.5,232.5 C 242.044,232.104 244.211,232.771 246,234.5C 246.498,237.482 246.665,240.482 246.5,243.5C 243.587,243.276 240.587,242.943 237.5,242.5C 236.386,241.277 236.219,239.944 237,238.5C 239.343,237.873 241.51,236.873 243.5,235.5C 241.5,235.167 239.5,234.833 237.5,234.5C 238.243,233.818 238.909,233.151 239.5,232.5 Z"/></g>
<g><path style="opacity:1" fill="#262a38" d="M 248.5,232.5 C 250.331,233.052 251.997,233.052 253.5,232.5C 254.386,233.325 254.719,234.325 254.5,235.5C 253.5,235.5 252.5,235.5 251.5,235.5C 251.5,238.167 251.5,240.833 251.5,243.5C 250.5,243.5 249.5,243.5 248.5,243.5C 248.5,239.833 248.5,236.167 248.5,232.5 Z"/></g>
<g><path style="opacity:1" fill="#161716" d="M 273.5,232.5 C 274.787,233.871 275.453,235.705 275.5,238C 275.167,239.833 274.833,241.667 274.5,243.5C 273.511,239.893 273.177,236.226 273.5,232.5 Z"/></g>
<g><path style="opacity:1" fill="#2f2125" d="M 280.5,232.5 C 283.596,231.907 285.929,232.907 287.5,235.5C 287.167,235.833 286.833,236.167 286.5,236.5C 283.721,233.719 281.721,234.219 280.5,238C 281.266,241.92 283.099,242.42 286,239.5C 287.726,240.648 287.559,241.815 285.5,243C 277.088,242.812 275.421,239.312 280.5,232.5 Z"/></g>
<g><path style="opacity:1" fill="#281e21" d="M 302.5,232.5 C 307.339,231.677 309.673,233.677 309.5,238.5C 307.076,238.192 304.743,238.526 302.5,239.5C 302.887,240.72 303.72,241.387 305,241.5C 306.578,240.453 308.078,240.453 309.5,241.5C 304.532,244.876 301.198,243.709 299.5,238C 299.863,235.808 300.863,233.974 302.5,232.5 Z"/></g>
<g><path style="opacity:1" fill="#9a958e" d="M 303.5,234.5 C 305.346,234.222 306.68,234.889 307.5,236.5C 305.833,237.833 304.167,237.833 302.5,236.5C 302.863,235.817 303.196,235.15 303.5,234.5 Z"/></g>
<g><path style="opacity:1" fill="#ede7da" d="M 193.5,237.5 C 195.167,237.5 196.833,237.5 198.5,237.5C 198.616,240.91 196.95,242.244 193.5,241.5C 193.5,240.167 193.5,238.833 193.5,237.5 Z"/></g>
<g><path style="opacity:1" fill="#e1e5dd" d="M 240.5,238.5 C 241.5,238.5 242.5,238.5 243.5,238.5C 243.5,239.5 243.5,240.5 243.5,241.5C 240.433,241.879 239.433,240.879 240.5,238.5 Z"/></g>
<g><path style="opacity:1" fill="#5d1f1e" d="M 241.5,261.5 C 242.138,263.573 243.138,265.573 244.5,267.5C 243.273,268.59 242.44,269.924 242,271.5C 241.502,268.183 241.335,264.85 241.5,261.5 Z"/></g>
<g><path style="opacity:1" fill="#443654" d="M 404.5,262.5 C 410.675,261.015 412.675,263.348 410.5,269.5C 411.467,265.149 409.8,262.815 405.5,262.5C 405.167,262.5 404.833,262.5 404.5,262.5 Z"/></g>
<g><path style="opacity:1" fill="#5b2e33" d="M 413.5,261.5 C 420.439,260.541 422.272,263.208 419,269.5C 417.89,267.963 416.39,267.297 414.5,267.5C 414.657,268.873 414.49,270.207 414,271.5C 413.502,268.183 413.335,264.85 413.5,261.5 Z"/></g>
<g><path style="opacity:1" fill="#e1ecf6" d="M 414.5,262.5 C 415.833,262.5 417.167,262.5 418.5,262.5C 418.5,263.833 418.5,265.167 418.5,266.5C 417.167,266.5 415.833,266.5 414.5,266.5C 414.5,265.167 414.5,263.833 414.5,262.5 Z"/></g>
<g><path style="opacity:1" fill="#614b50" d="M 120.5,263.5 C 121.552,263.351 122.552,263.517 123.5,264C 122.328,264.419 121.328,265.085 120.5,266C 127.07,268.68 127.07,270.346 120.5,271C 124.268,269.823 124.101,268.656 120,267.5C 119.421,266.072 119.588,264.738 120.5,263.5 Z"/></g>
<g><path style="opacity:1" fill="#5e506c" d="M 157.5,263.5 C 160.166,263.066 161.333,264.066 161,266.5C 160.333,265.833 159.667,265.167 159,264.5C 157.26,265.716 156.26,267.382 156,269.5C 155.252,267.16 155.752,265.16 157.5,263.5 Z"/></g>
<g><path style="opacity:1" fill="#73617a" d="M 169.5,269.5 C 169.167,269.5 168.833,269.5 168.5,269.5C 167.69,263.073 166.19,263.073 164,269.5C 163.82,265.958 165.153,262.958 168,260.5C 168.617,261.449 168.451,262.282 167.5,263C 170.302,264.731 170.969,266.898 169.5,269.5 Z"/></g>
<g><path style="opacity:1" fill="#6b566f" d="M 198.5,269.5 C 198.167,269.5 197.833,269.5 197.5,269.5C 196.69,263.073 195.19,263.073 193,269.5C 192.486,263.993 194.486,262.659 199,265.5C 199.765,267.066 199.598,268.399 198.5,269.5 Z"/></g>
<g><path style="opacity:1" fill="#5e506c" d="M 235.5,263.5 C 238.166,263.066 239.333,264.066 239,266.5C 238.333,265.833 237.667,265.167 237,264.5C 235.26,265.716 234.26,267.382 234,269.5C 233.252,267.16 233.752,265.16 235.5,263.5 Z"/></g>
<g><path style="opacity:1" fill="#6b566f" d="M 271.5,269.5 C 271.167,269.5 270.833,269.5 270.5,269.5C 269.69,263.073 268.19,263.073 266,269.5C 265.486,263.993 267.486,262.659 272,265.5C 272.765,267.066 272.598,268.399 271.5,269.5 Z"/></g>
<g><path style="opacity:1" fill="#5e506c" d="M 295.5,263.5 C 298.166,263.066 299.333,264.066 299,266.5C 298.333,265.833 297.667,265.167 297,264.5C 295.26,265.716 294.26,267.382 294,269.5C 293.252,267.16 293.752,265.16 295.5,263.5 Z"/></g>
<g><path style="opacity:1" fill="#706b83" d="M 364.5,261.5 C 366.202,263.211 367.535,265.211 368.5,267.5C 368.183,270.655 366.517,271.822 363.5,271C 364.448,270.517 365.448,270.351 366.5,270.5C 366.66,268.801 366.494,267.134 366,265.5C 364.992,265.018 363.825,264.852 362.5,265C 363.823,264.184 364.489,263.017 364.5,261.5 Z"/></g>
<g><path style="opacity:1" fill="#6c677d" d="M 392.5,263.5 C 397.182,263.875 398.516,266.208 396.5,270.5C 395.277,271.614 393.944,271.781 392.5,271C 393.448,270.517 394.448,270.351 395.5,270.5C 395.66,268.801 395.494,267.134 395,265.5C 393.992,265.018 392.825,264.852 391.5,265C 392.056,264.617 392.389,264.117 392.5,263.5 Z"/></g>
<g><path style="opacity:1" fill="#44518c" d="M 102.5,270.5 C 101.458,271.791 100.292,271.791 99,270.5C 98.2419,268.231 98.4086,266.064 99.5,264C 100.899,263.405 102.232,263.572 103.5,264.5C 104.655,267.446 104.821,270.446 104,273.5C 103.768,272.263 103.268,271.263 102.5,270.5 Z"/></g>
<g><path style="opacity:1" fill="#4a2843" d="M 143.5,263.5 C 144.309,265.292 144.809,267.292 145,269.5C 145.75,270.126 146.584,270.626 147.5,271C 146.216,271.684 145.049,271.517 144,270.5C 143.503,268.19 143.337,265.857 143.5,263.5 Z"/></g>
<g><path style="opacity:1" fill="#5e5571" d="M 385.5,264.5 C 383.39,265.453 382.223,267.119 382,269.5C 381.202,267.741 381.369,266.074 382.5,264.5C 383.687,263.347 384.687,263.347 385.5,264.5 Z"/></g>
<g><path style="opacity:1" fill="#4e8ec7" d="M 386.5,272.5 C 387.473,270.052 387.806,267.385 387.5,264.5C 388.638,266.717 388.805,269.717 388,273.5C 386.612,274.554 385.112,274.72 383.5,274C 384.737,273.768 385.737,273.268 386.5,272.5 Z"/></g>
<g><path style="opacity:1" fill="#f6e1ce" d="M 102.5,270.5 C 99.2101,269.344 98.7101,267.344 101,264.5C 103.592,266.008 104.092,268.008 102.5,270.5 Z"/></g>
<g><path style="opacity:1" fill="#2f3172" d="M 139.5,262.5 C 140.205,265.228 140.872,268.061 141.5,271C 141.167,271.167 140.833,271.333 140.5,271.5C 139.516,268.572 139.183,265.572 139.5,262.5 Z"/></g>
<g><path style="opacity:1" fill="#3f70a9" d="M 226.5,262.5 C 227.289,262.783 227.956,263.283 228.5,264C 227.652,266.671 227.319,269.171 227.5,271.5C 226.516,268.572 226.183,265.572 226.5,262.5 Z"/></g>
<g><path style="opacity:1" fill="#747ea5" d="M 404.5,262.5 C 404.833,262.5 405.167,262.5 405.5,262.5C 404.79,264.746 404.29,267.08 404,269.5C 401.894,266.906 402.06,264.573 404.5,262.5 Z"/></g>
<g><path style="opacity:1" fill="#7a7a9c" d="M 92.5,264.5 C 91.9416,266.823 91.2749,269.157 90.5,271.5C 89.3483,268.894 89.1816,266.227 90,263.5C 90.6708,264.252 91.5041,264.586 92.5,264.5 Z"/></g>
<g><path style="opacity:1" fill="#5e2246" d="M 92.5,264.5 C 93.1894,263.226 94.0228,263.226 95,264.5C 95.6667,266.833 95.6667,269.167 95,271.5C 94.6667,269.5 94.3333,267.5 94,265.5C 93.6174,264.944 93.1174,264.611 92.5,264.5 Z"/></g>
<g><path style="opacity:1" fill="#3f1d3a" d="M 106.5,263.5 C 107.289,263.783 107.956,264.283 108.5,265C 107.736,267.069 107.236,269.236 107,271.5C 106.503,268.854 106.336,266.187 106.5,263.5 Z"/></g>
<g><path style="opacity:1" fill="#473b6f" d="M 189.5,273.5 C 189.737,272.209 189.404,271.209 188.5,270.5C 187.458,271.791 186.292,271.791 185,270.5C 184.333,268.5 184.333,266.5 185,264.5C 186.751,263.826 188.417,263.493 190,263.5C 190.808,267.027 190.641,270.36 189.5,273.5 Z"/></g>
<g><path style="opacity:1" fill="#f6ead8" d="M 188.5,270.5 C 185.21,269.344 184.71,267.344 187,264.5C 189.592,266.008 190.092,268.008 188.5,270.5 Z"/></g>
<g><path style="opacity:1" fill="#3e3a58" d="M 286.5,264.5 C 287.374,266.69 289.041,267.69 291.5,267.5C 291.649,268.552 291.483,269.552 291,270.5C 290.009,269.061 288.676,268.061 287,267.5C 286.517,266.552 286.351,265.552 286.5,264.5 Z"/></g>
<g><path style="opacity:1" fill="#7a7a9c" d="M 312.5,264.5 C 311.942,266.823 311.275,269.157 310.5,271.5C 309.348,268.894 309.182,266.227 310,263.5C 310.671,264.252 311.504,264.586 312.5,264.5 Z"/></g>
<g><path style="opacity:1" fill="#5e2246" d="M 312.5,264.5 C 313.189,263.226 314.023,263.226 315,264.5C 315.667,266.833 315.667,269.167 315,271.5C 314.667,269.5 314.333,267.5 314,265.5C 313.617,264.944 313.117,264.611 312.5,264.5 Z"/></g>
<g><path style="opacity:1" fill="#5e505b" d="M 112.5,265.5 C 116.075,262.492 117.742,263.492 117.5,268.5C 115.533,268.261 113.699,268.594 112,269.5C 111.235,267.934 111.402,266.601 112.5,265.5 Z"/></g>
<g><path style="opacity:1" fill="#bfc8c2" d="M 112.5,265.5 C 114.342,263.966 115.675,264.3 116.5,266.5C 115.833,266.833 115.167,267.167 114.5,267.5C 113.287,267.253 112.62,266.586 112.5,265.5 Z"/></g>
<g><path style="opacity:1" fill="#5e505b" d="M 214.5,265.5 C 218.075,262.492 219.742,263.492 219.5,268.5C 217.533,268.261 215.699,268.594 214,269.5C 213.235,267.934 213.402,266.601 214.5,265.5 Z"/></g>
<g><path style="opacity:1" fill="#bfc8c2" d="M 214.5,265.5 C 216.342,263.966 217.675,264.3 218.5,266.5C 217.833,266.833 217.167,267.167 216.5,267.5C 215.287,267.253 214.62,266.586 214.5,265.5 Z"/></g>
<g><path style="opacity:1" fill="#837481" d="M 250.5,263.5 C 253.833,263.5 255.5,265.167 255.5,268.5C 253.179,268.229 251.179,268.896 249.5,270.5C 248.154,267.9 248.488,265.567 250.5,263.5 Z"/></g>
<g><path style="opacity:1" fill="#837481" d="M 279.5,263.5 C 282.833,263.5 284.5,265.167 284.5,268.5C 282.179,268.229 280.179,268.896 278.5,270.5C 277.154,267.9 277.488,265.567 279.5,263.5 Z"/></g>
<g><path style="opacity:1" fill="#715253" d="M 302.5,270.5 C 303.5,270.5 304.5,270.5 305.5,270.5C 305.5,268.833 305.5,267.167 305.5,265.5C 304.325,265.719 303.325,265.386 302.5,264.5C 304.259,263.246 305.759,263.579 307,265.5C 307.495,267.473 307.662,269.473 307.5,271.5C 305.585,271.784 303.919,271.451 302.5,270.5 Z"/></g>
<g><path style="opacity:1" fill="#837481" d="M 319.5,263.5 C 322.833,263.5 324.5,265.167 324.5,268.5C 322.179,268.229 320.179,268.896 318.5,270.5C 317.154,267.9 317.488,265.567 319.5,263.5 Z"/></g>
<g><path style="opacity:1" fill="#837481" d="M 339.5,263.5 C 342.833,263.5 344.5,265.167 344.5,268.5C 342.179,268.229 340.179,268.896 338.5,270.5C 337.154,267.9 337.488,265.567 339.5,263.5 Z"/></g>
<g><path style="opacity:1" fill="#84481e" d="M 385.5,264.5 C 386.167,264.5 386.833,264.5 387.5,264.5C 387.806,267.385 387.473,270.052 386.5,272.5C 386.445,269.902 386.111,267.236 385.5,264.5 Z"/></g>
<g><path style="opacity:1" fill="#393174" d="M 177.5,261.5 C 178.641,264.64 178.808,267.973 178,271.5C 177.952,268.671 176.952,266.337 175,264.5C 173.837,266.285 173.17,268.285 173,270.5C 172.333,268.5 172.333,266.5 173,264.5C 174.333,263.167 175.667,263.167 177,264.5C 177.483,263.552 177.649,262.552 177.5,261.5 Z"/></g>
<g><path style="opacity:1" fill="#4661a1" d="M 210.5,271.5 C 210.795,269.265 210.461,267.265 209.5,265.5C 208.603,264.402 207.77,264.402 207,265.5C 206.506,267.134 206.34,268.801 206.5,270.5C 205.378,268.712 205.211,266.712 206,264.5C 207.333,263.167 208.667,263.167 210,264.5C 210.333,263.5 210.667,262.5 211,261.5C 211.808,265.027 211.641,268.36 210.5,271.5 Z"/></g>
<g><path style="opacity:1" fill="#f5f6f2" d="M 209.5,265.5 C 209.5,267.167 209.5,268.833 209.5,270.5C 208.5,270.5 207.5,270.5 206.5,270.5C 206.34,268.801 206.506,267.134 207,265.5C 207.77,264.402 208.603,264.402 209.5,265.5 Z"/></g>
<g><path style="opacity:1" fill="#4661a1" d="M 375.5,271.5 C 375.795,269.265 375.461,267.265 374.5,265.5C 373.603,264.402 372.77,264.402 372,265.5C 371.506,267.134 371.34,268.801 371.5,270.5C 370.378,268.712 370.211,266.712 371,264.5C 372.333,263.167 373.667,263.167 375,264.5C 375.333,263.5 375.667,262.5 376,261.5C 376.808,265.027 376.641,268.36 375.5,271.5 Z"/></g>
<g><path style="opacity:1" fill="#f5f6f2" d="M 374.5,265.5 C 374.5,267.167 374.5,268.833 374.5,270.5C 373.5,270.5 372.5,270.5 371.5,270.5C 371.34,268.801 371.506,267.134 372,265.5C 372.77,264.402 373.603,264.402 374.5,265.5 Z"/></g>
<g><path style="opacity:1" fill="#302054" d="M 302.5,270.5 C 301.224,269.614 301.224,268.614 302.5,267.5C 303.087,268.233 303.087,269.233 302.5,270.5 Z"/></g>
<g><path style="opacity:1" fill="#473a45" d="M 128.5,263.5 C 129.822,263.33 130.989,263.663 132,264.5C 132.497,266.81 132.663,269.143 132.5,271.5C 130.833,271.5 129.167,271.5 127.5,271.5C 127.5,270.167 127.5,268.833 127.5,267.5C 130.797,267.329 131.131,267.995 128.5,269.5C 129.325,270.386 130.325,270.719 131.5,270.5C 131.66,268.801 131.494,267.134 131,265.5C 129.992,265.018 128.825,264.852 127.5,265C 128.056,264.617 128.389,264.117 128.5,263.5 Z"/></g>
<g><path style="opacity:1" fill="#44597a" d="M 160.5,269.5 C 161.043,269.56 161.376,269.893 161.5,270.5C 160.277,271.614 158.944,271.781 157.5,271C 158.737,270.768 159.737,270.268 160.5,269.5 Z"/></g>
<g><path style="opacity:1" fill="#445a7a" d="M 168.5,269.5 C 168.833,269.5 169.167,269.5 169.5,269.5C 168.796,271.344 167.463,271.844 165.5,271C 166.737,270.768 167.737,270.268 168.5,269.5 Z"/></g>
<g><path style="opacity:1" fill="#445a7a" d="M 197.5,269.5 C 197.833,269.5 198.167,269.5 198.5,269.5C 197.796,271.344 196.463,271.844 194.5,271C 195.737,270.768 196.737,270.268 197.5,269.5 Z"/></g>
<g><path style="opacity:1" fill="#8a6441" d="M 209.5,265.5 C 210.461,267.265 210.795,269.265 210.5,271.5C 208.901,271.768 207.568,271.434 206.5,270.5C 207.5,270.5 208.5,270.5 209.5,270.5C 209.5,268.833 209.5,267.167 209.5,265.5 Z"/></g>
<g><path style="opacity:1" fill="#4b617c" d="M 218.5,269.5 C 220.379,269.393 220.712,269.893 219.5,271C 218.167,271.667 216.833,271.667 215.5,271C 216.737,270.768 217.737,270.268 218.5,269.5 Z"/></g>
<g><path style="opacity:1" fill="#44597a" d="M 238.5,269.5 C 239.043,269.56 239.376,269.893 239.5,270.5C 238.277,271.614 236.944,271.781 235.5,271C 236.737,270.768 237.737,270.268 238.5,269.5 Z"/></g>
<g><path style="opacity:1" fill="#445a7a" d="M 270.5,269.5 C 270.833,269.5 271.167,269.5 271.5,269.5C 270.796,271.344 269.463,271.844 267.5,271C 268.737,270.768 269.737,270.268 270.5,269.5 Z"/></g>
<g><path style="opacity:1" fill="#44597a" d="M 298.5,269.5 C 299.043,269.56 299.376,269.893 299.5,270.5C 298.277,271.614 296.944,271.781 295.5,271C 296.737,270.768 297.737,270.268 298.5,269.5 Z"/></g>
<g><path style="opacity:1" fill="#473a45" d="M 327.5,263.5 C 328.822,263.33 329.989,263.663 331,264.5C 331.497,266.81 331.663,269.143 331.5,271.5C 329.833,271.5 328.167,271.5 326.5,271.5C 326.5,270.167 326.5,268.833 326.5,267.5C 329.797,267.329 330.131,267.995 327.5,269.5C 328.325,270.386 329.325,270.719 330.5,270.5C 330.66,268.801 330.494,267.134 330,265.5C 328.992,265.018 327.825,264.852 326.5,265C 327.056,264.617 327.389,264.117 327.5,263.5 Z"/></g>
<g><path style="opacity:1" fill="#8a6441" d="M 374.5,265.5 C 375.461,267.265 375.795,269.265 375.5,271.5C 373.901,271.768 372.568,271.434 371.5,270.5C 372.5,270.5 373.5,270.5 374.5,270.5C 374.5,268.833 374.5,267.167 374.5,265.5 Z"/></g>
<g><path style="opacity:1" fill="#342d3b" d="M 410.5,269.5 C 410.649,270.552 410.483,271.552 410,272.5C 402.78,271.369 402.947,270.369 410.5,269.5 Z"/></g>
<g><path style="opacity:1" fill="#393c4c" d="M 189.5,273.5 C 187.815,274.844 186.148,274.677 184.5,273C 186.107,273.019 187.774,273.185 189.5,273.5 Z"/></g>
<g><path style="opacity:1" fill="#653e2c" d="M 71.5,303.5 C 70.5489,304.919 70.2155,306.585 70.5,308.5C 68.1608,302.665 70.1608,300.165 76.5,301C 77.1667,301.667 77.8333,302.333 78.5,303C 76.8932,303.115 75.3932,302.615 74,301.5C 72.699,301.639 71.8656,302.305 71.5,303.5 Z"/></g>
<g><path style="opacity:1" fill="#1d165e" d="M 94.5,300.5 C 95.6408,303.64 95.8075,306.973 95,310.5C 94.6174,309.944 94.1174,309.611 93.5,309.5C 93.5,309.167 93.5,308.833 93.5,308.5C 94.4731,306.052 94.8064,303.385 94.5,300.5 Z"/></g>
<g><path style="opacity:1" fill="#1d165e" d="M 127.5,300.5 C 128.641,303.64 128.808,306.973 128,310.5C 127.617,309.944 127.117,309.611 126.5,309.5C 126.5,309.167 126.5,308.833 126.5,308.5C 127.473,306.052 127.806,303.385 127.5,300.5 Z"/></g>
<g><path style="opacity:1" fill="#371a1a" d="M 166.5,305.5 C 166.5,306.167 166.5,306.833 166.5,307.5C 165.069,307.881 164.236,308.881 164,310.5C 163.333,307.167 163.333,303.833 164,300.5C 164.05,302.744 164.883,304.411 166.5,305.5 Z"/></g>
<g><path style="opacity:1" fill="#301717" d="M 142.5,301.5 C 146.991,300.259 148.324,300.259 146.5,301.5C 146.167,313.5 145.833,313.5 145.5,301.5C 144.5,301.5 143.5,301.5 142.5,301.5 Z"/></g>
<g><path style="opacity:1" fill="#554a5e" d="M 85.5,309.5 C 82.343,311.275 80.6763,310.275 80.5,306.5C 81.738,304.076 83.238,301.742 85,299.5C 85.6172,300.449 85.4506,301.282 84.5,302C 87.8893,304.322 88.2226,306.822 85.5,309.5 Z"/></g>
<g><path style="opacity:1" fill="#97652f" d="M 94.5,300.5 C 94.8064,303.385 94.4731,306.052 93.5,308.5C 93.7678,306.901 93.4345,305.568 92.5,304.5C 92.5,304.167 92.5,303.833 92.5,303.5C 93.1667,302.5 93.8333,301.5 94.5,300.5 Z"/></g>
<g><path style="opacity:1" fill="#72739c" d="M 97.5,302.5 C 98.7479,303.334 99.4146,304.667 99.5,306.5C 99.1667,307.833 98.8333,309.167 98.5,310.5C 97.52,307.914 97.1866,305.247 97.5,302.5 Z"/></g>
<g><path style="opacity:1" fill="#594754" d="M 111.5,302.5 C 115.976,302.822 117.476,305.156 116,309.5C 114.612,310.554 113.112,310.72 111.5,310C 112.448,309.517 113.448,309.351 114.5,309.5C 114.5,307.833 114.5,306.167 114.5,304.5C 113.167,304.5 111.833,304.5 110.5,304.5C 110.657,305.873 110.49,307.207 110,308.5C 109.257,306.126 109.757,304.126 111.5,302.5 Z"/></g>
<g><path style="opacity:1" fill="#97652f" d="M 127.5,300.5 C 127.806,303.385 127.473,306.052 126.5,308.5C 126.768,306.901 126.434,305.568 125.5,304.5C 125.5,304.167 125.5,303.833 125.5,303.5C 126.167,302.5 126.833,301.5 127.5,300.5 Z"/></g>
<g><path style="opacity:1" fill="#4f3c43" d="M 136.5,304.5 C 136.631,305.239 136.464,305.906 136,306.5C 134.951,304.893 133.451,304.227 131.5,304.5C 131.5,305.833 131.5,307.167 131.5,308.5C 130.212,306.965 130.212,305.299 131.5,303.5C 133.62,301.991 135.287,302.324 136.5,304.5 Z"/></g>
<g><path style="opacity:1" fill="#72739c" d="M 151.5,302.5 C 152.748,303.334 153.415,304.667 153.5,306.5C 153.167,307.833 152.833,309.167 152.5,310.5C 151.52,307.914 151.187,305.247 151.5,302.5 Z"/></g>
<g><path style="opacity:1" fill="#e9ede5" d="M 85.5,309.5 C 82.0897,309.616 80.7564,307.95 81.5,304.5C 82.8333,304.5 84.1667,304.5 85.5,304.5C 85.5,306.167 85.5,307.833 85.5,309.5 Z"/></g>
<g><path style="opacity:1" fill="#f8f7ef" d="M 92.5,304.5 C 93.4345,305.568 93.7678,306.901 93.5,308.5C 93.5,308.833 93.5,309.167 93.5,309.5C 91.5159,309.516 90.5159,308.516 90.5,306.5C 90.7472,305.287 91.4138,304.62 92.5,304.5 Z"/></g>
<g><path style="opacity:1" fill="#f8f7ef" d="M 125.5,304.5 C 126.434,305.568 126.768,306.901 126.5,308.5C 126.5,308.833 126.5,309.167 126.5,309.5C 124.516,309.516 123.516,308.516 123.5,306.5C 123.747,305.287 124.414,304.62 125.5,304.5 Z"/></g>
<g><path style="opacity:1" fill="#221c35" d="M 179.5,301.5 C 179.959,304.49 180.959,307.323 182.5,310C 181.552,310.483 180.552,310.649 179.5,310.5C 179.5,307.5 179.5,304.5 179.5,301.5 Z"/></g>
<g><path style="opacity:1" fill="#5c4f65" d="M 92.5,303.5 C 92.5,303.833 92.5,304.167 92.5,304.5C 91.4138,304.62 90.7472,305.287 90.5,306.5C 90.5159,308.516 91.5159,309.516 93.5,309.5C 92.1155,310.801 90.6155,310.801 89,309.5C 88.1923,307.421 88.359,305.421 89.5,303.5C 90.6868,302.347 91.6868,302.347 92.5,303.5 Z"/></g>
<g><path style="opacity:1" fill="#5c4f65" d="M 125.5,303.5 C 125.5,303.833 125.5,304.167 125.5,304.5C 124.414,304.62 123.747,305.287 123.5,306.5C 123.516,308.516 124.516,309.516 126.5,309.5C 125.116,310.801 123.616,310.801 122,309.5C 121.192,307.421 121.359,305.421 122.5,303.5C 123.687,302.347 124.687,302.347 125.5,303.5 Z"/></g>
<g><path style="opacity:1" fill="#46618e" d="M 166.5,307.5 C 166.5,306.833 166.5,306.167 166.5,305.5C 169.73,301.613 170.064,301.947 167.5,306.5C 170.064,311.053 169.73,311.387 166.5,307.5 Z"/></g>
<g><path style="opacity:1" fill="#7e8fa3" d="M 136.5,304.5 C 137.404,305.209 137.737,306.209 137.5,307.5C 135.219,307.077 133.552,307.744 132.5,309.5C 131.833,309.5 131.5,309.167 131.5,308.5C 131.5,307.167 131.5,305.833 131.5,304.5C 133.451,304.227 134.951,304.893 136,306.5C 136.464,305.906 136.631,305.239 136.5,304.5 Z"/></g>
<g><path style="opacity:1" fill="#3b2b46" d="M 71.5,303.5 C 71.178,305.722 71.8446,307.556 73.5,309C 75.1667,308.667 76.8333,308.333 78.5,308C 75.9869,311.132 73.3202,311.299 70.5,308.5C 70.2155,306.585 70.5489,304.919 71.5,303.5 Z"/></g>
<g><path style="opacity:1" fill="#523e51" d="M 106.5,312.5 C 106.649,311.448 106.483,310.448 106,309.5C 103.173,310.999 101.34,310.165 100.5,307C 100.439,305.289 101.106,303.956 102.5,303C 104.18,302.966 105.68,302.799 107,302.5C 107.808,306.027 107.641,309.36 106.5,312.5 Z"/></g>
<g><path style="opacity:1" fill="#f2e6d6" d="M 102.5,304.5 C 103.833,304.5 105.167,304.5 106.5,304.5C 106.725,306.716 105.892,308.383 104,309.5C 102.731,308.095 102.231,306.429 102.5,304.5 Z"/></g>
<g><path style="opacity:1" fill="#405a75" d="M 132.5,309.5 C 134.226,309.185 135.893,309.019 137.5,309C 135.852,310.677 134.185,310.844 132.5,309.5 Z"/></g>
<g><path style="opacity:1" fill="#5d495b" d="M 156.5,302.5 C 158.484,302.383 160.15,303.05 161.5,304.5C 159.997,305.052 158.331,305.052 156.5,304.5C 155.952,308.795 157.619,310.295 161.5,309C 158.297,311.283 155.964,310.616 154.5,307C 154.519,305.167 155.185,303.667 156.5,302.5 Z"/></g>
<g><path style="opacity:1" fill="#625364" d="M 172.5,302.5 C 175.833,302.5 177.5,304.167 177.5,307.5C 175.801,307.34 174.134,307.506 172.5,308C 173.649,309.744 174.983,309.911 176.5,308.5C 177.696,308.846 177.696,309.346 176.5,310C 173.402,311.067 171.402,310.067 170.5,307C 170.519,305.167 171.185,303.667 172.5,302.5 Z"/></g>
<g><path style="opacity:1" fill="#323544" d="M 106.5,312.5 C 104.815,313.844 103.148,313.677 101.5,312C 103.107,312.019 104.774,312.185 106.5,312.5 Z"/></g>
<g><path style="opacity:1" fill="#e5e5e4" d="M 72.5,316.5 C 193.167,316.333 313.834,316.5 434.5,317C 435.333,317.833 436.167,318.667 437,319.5C 437.667,333.5 437.667,347.5 437,361.5C 435.786,363.049 434.286,364.215 432.5,365C 313.167,365.667 193.833,365.667 74.5,365C 72.508,364.426 71.008,363.259 70,361.5C 69.3333,347.5 69.3333,333.5 70,319.5C 71.045,318.627 71.8783,317.627 72.5,316.5 Z"/></g>
<g><path style="opacity:1" fill="#9093a0" d="M 246.5,336.5 C 248.994,334.923 250.827,335.59 252,338.5C 253.335,344.923 251.001,347.256 245,345.5C 244.833,344 244.667,342.5 244.5,341C 244.569,339.014 245.235,337.514 246.5,336.5 Z"/></g>
<g><path style="opacity:1" fill="#7e7d7e" d="M 294.5,335.5 C 296.527,335.338 298.527,335.505 300.5,336C 298.866,336.494 297.199,336.66 295.5,336.5C 295.5,337.833 295.5,339.167 295.5,340.5C 302.167,340.833 302.167,341.167 295.5,341.5C 295.5,342.833 295.5,344.167 295.5,345.5C 297.199,345.34 298.866,345.506 300.5,346C 298.527,346.495 296.527,346.662 294.5,346.5C 294.5,342.833 294.5,339.167 294.5,335.5 Z"/></g>
<g><path style="opacity:1" fill="#8e8a95" d="M 155.5,335.5 C 157.857,335.337 160.19,335.503 162.5,336C 160.866,336.494 159.199,336.66 157.5,336.5C 157.5,337.833 157.5,339.167 157.5,340.5C 164.167,340.833 164.167,341.167 157.5,341.5C 157.5,342.833 157.5,344.167 157.5,345.5C 159.199,345.34 160.866,345.506 162.5,346C 160.19,346.497 157.857,346.663 155.5,346.5C 155.5,342.833 155.5,339.167 155.5,335.5 Z"/></g>
<g><path style="opacity:1" fill="#7f89a2" d="M 195.5,335.5 C 201.167,335.664 201.5,335.997 196.5,336.5C 196.5,338.167 196.5,339.833 196.5,341.5C 201.833,341.833 201.833,342.167 196.5,342.5C 196.657,343.873 196.49,345.207 196,346.5C 195.501,342.848 195.335,339.182 195.5,335.5 Z"/></g>
<g><path style="opacity:1" fill="#968992" d="M 256.5,336.5 C 257.209,335.596 258.209,335.263 259.5,335.5C 258.971,339.351 259.638,342.851 261.5,346C 256.627,346.751 255.294,346.584 257.5,345.5C 257.81,342.287 257.477,339.287 256.5,336.5 Z"/></g>
<g><path style="opacity:1" fill="#807d98" d="M 283.5,336.5 C 287.967,335.138 289.633,335.138 288.5,336.5C 288.167,349.833 287.833,349.833 287.5,336.5C 286.167,336.5 284.833,336.5 283.5,336.5 Z"/></g>
<g><path style="opacity:1" fill="#a68b7e" d="M 313.5,336.5 C 319.475,335.38 320.808,335.38 317.5,336.5C 317.167,349.833 316.833,349.833 316.5,336.5C 315.5,336.5 314.5,336.5 313.5,336.5 Z"/></g>
<g><path style="opacity:1" fill="#968992" d="M 345.5,336.5 C 346.209,335.596 347.209,335.263 348.5,335.5C 347.971,339.351 348.638,342.851 350.5,346C 345.627,346.751 344.294,346.584 346.5,345.5C 346.81,342.287 346.477,339.287 345.5,336.5 Z"/></g>
<g><path style="opacity:1" fill="#828ba7" d="M 165.5,338.5 C 167.265,337.539 169.265,337.205 171.5,337.5C 171.665,341.182 171.499,344.848 171,348.5C 170.346,349.696 169.846,349.696 169.5,348.5C 170.417,345.242 170.751,341.909 170.5,338.5C 168.833,338.5 167.167,338.5 165.5,338.5 Z"/></g>
<g><path style="opacity:1" fill="#869fbc" d="M 225.5,335.5 C 226.302,336.952 226.802,338.618 227,340.5C 227.889,339.112 228.389,339.278 228.5,341C 228.389,342.722 227.889,342.888 227,341.5C 226.667,343.167 226.333,344.833 226,346.5C 225.501,342.848 225.335,339.182 225.5,335.5 Z"/></g>
<g><path style="opacity:1" fill="#b9b6b9" d="M 236.5,335.5 C 242.156,335.867 243.989,338.867 242,344.5C 236.959,347.834 234.459,346.334 234.5,340C 234.759,338.213 235.425,336.713 236.5,335.5 Z"/></g>
<g><path style="opacity:1" fill="#918a8f" d="M 305.5,335.5 C 306.873,335.343 308.207,335.51 309.5,336C 307.714,336.196 306.381,337.029 305.5,338.5C 307.422,339.711 309.255,341.044 311,342.5C 310.551,346.27 309.884,346.27 309,342.5C 306.527,341.967 304.693,340.634 303.5,338.5C 303.942,337.261 304.609,336.261 305.5,335.5 Z"/></g>
<g><path style="opacity:1" fill="#b9b6b9" d="M 325.5,335.5 C 331.156,335.867 332.989,338.867 331,344.5C 325.959,347.834 323.459,346.334 323.5,340C 323.759,338.213 324.425,336.713 325.5,335.5 Z"/></g>
<g><path style="opacity:1" fill="#b9b6b9" d="M 335.5,335.5 C 341.156,335.867 342.989,338.867 341,344.5C 335.959,347.834 333.459,346.334 333.5,340C 333.759,338.213 334.425,336.713 335.5,335.5 Z"/></g>
<g><path style="opacity:1" fill="#8b92a0" d="M 210.5,339.5 C 212.428,341.601 213.095,343.934 212.5,346.5C 211.614,345.675 211.281,344.675 211.5,343.5C 208.675,343.162 206.508,344.162 205,346.5C 204.675,344.447 205.009,342.447 206,340.5C 207.049,342.107 208.549,342.773 210.5,342.5C 210.5,341.5 210.5,340.5 210.5,339.5 Z"/></g>
<g><path style="opacity:1" fill="#838397" d="M 220.5,336.5 C 221.735,338.017 221.735,339.684 220.5,341.5C 221.64,343.078 222.14,344.744 222,346.5C 220.959,344.415 219.459,342.748 217.5,341.5C 216.702,343.078 216.202,344.744 216,346.5C 215.501,342.848 215.335,339.182 215.5,335.5C 217.415,335.216 219.081,335.549 220.5,336.5 Z"/></g>
<g><path style="opacity:1" fill="#dfded6" d="M 220.5,336.5 C 220.833,339.5 219.5,340.833 216.5,340.5C 216.5,339.167 216.5,337.833 216.5,336.5C 217.833,336.5 219.167,336.5 220.5,336.5 Z"/></g>
<g><path style="opacity:1" fill="#dcddd7" d="M 246.5,336.5 C 251.212,337.084 251.545,338.584 247.5,341C 248.449,341.617 249.282,341.451 250,340.5C 251.238,343.926 250.071,345.592 246.5,345.5C 245.412,342.444 245.412,339.444 246.5,336.5 Z"/></g>
<g><path style="opacity:1" fill="#a69b9f" d="M 272.5,398.5 C 275.898,398.18 279.232,398.513 282.5,399.5C 281.311,400.429 279.978,400.762 278.5,400.5C 277.833,413.833 277.167,413.833 276.5,400.5C 274.517,400.843 273.183,400.176 272.5,398.5 Z"/></g>
<g><path style="opacity:1" fill="#a29798" d="M 290.5,401.5 C 292.681,401.284 294.347,402.117 295.5,404C 293.575,403.865 291.575,403.698 289.5,403.5C 289.34,405.199 289.506,406.866 290,408.5C 291.744,409.03 293.244,409.03 294.5,408.5C 292.423,411.119 290.257,411.119 288,408.5C 286.916,405.341 287.75,403.008 290.5,401.5 Z"/></g>
<g><path style="opacity:1" fill="#9d99a4" d="M 315.5,399.5 C 317.121,399.787 318.121,400.787 318.5,402.5C 317.609,405.369 317.276,408.036 317.5,410.5C 316.914,410.291 316.414,409.957 316,409.5C 315.028,406.087 314.862,402.753 315.5,399.5 Z"/></g>
<g><path style="opacity:1" fill="#8f8b8c" d="M 230.5,409.5 C 229.458,410.791 228.292,410.791 227,409.5C 226.333,406.833 226.333,404.167 227,401.5C 227.333,403.833 227.667,406.167 228,408.5C 228.671,409.252 229.504,409.586 230.5,409.5 Z"/></g>
<g><path style="opacity:1" fill="#a090a5" d="M 230.5,409.5 C 231.073,406.853 231.74,404.187 232.5,401.5C 233.833,404.5 233.833,407.5 232.5,410.5C 231.817,410.137 231.15,409.804 230.5,409.5 Z"/></g>
<g><path style="opacity:1" fill="#9c9698" d="M 246.5,401.5 C 248.484,401.383 250.15,402.05 251.5,403.5C 249.979,403.88 248.313,404.046 246.5,404C 245.02,406.55 245.687,408.383 248.5,409.5C 249.478,409.023 250.311,408.357 251,407.5C 251.617,408.449 251.451,409.282 250.5,410C 244.92,411.261 243.087,409.094 245,403.5C 245.717,402.956 246.217,402.289 246.5,401.5 Z"/></g>
<g><path style="opacity:1" fill="#aca5a3" d="M 255.5,401.5 C 257.144,401.286 258.644,401.62 260,402.5C 260.667,405.167 260.667,407.833 260,410.5C 258.093,410.579 256.093,410.246 254,409.5C 253.333,408.5 253.333,407.5 254,406.5C 255.509,405.91 257.009,405.244 258.5,404.5C 257.349,403.269 256.183,403.269 255,404.5C 254.53,403.423 254.697,402.423 255.5,401.5 Z"/></g>
<g><path style="opacity:1" fill="#8f8f9d" d="M 263.5,401.5 C 264.806,401.879 266.139,402.212 267.5,402.5C 264.983,404.457 263.816,407.124 264,410.5C 263.502,407.518 263.335,404.518 263.5,401.5 Z"/></g>
<g><path style="opacity:1" fill="#92919f" d="M 297.5,398.5 C 298.314,400.631 298.814,402.964 299,405.5C 300.422,403.362 302.255,402.195 304.5,402C 300.745,404.549 300.745,407.216 304.5,410C 303.833,410.667 303.167,410.667 302.5,410C 300.305,405.304 298.805,405.471 298,410.5C 297.501,406.514 297.334,402.514 297.5,398.5 Z"/></g>
<g><path style="opacity:1" fill="#9c989c" d="M 237.5,401.5 C 239.484,401.383 241.15,402.05 242.5,403.5C 241.091,403.654 239.424,403.821 237.5,404C 239.67,404.811 241.337,406.145 242.5,408C 241.015,410.867 239.015,411.201 236.5,409C 237.549,408.508 238.549,408.674 239.5,409.5C 240.462,407.117 239.462,406.117 236.5,406.5C 236.366,404.708 236.699,403.042 237.5,401.5 Z"/></g>
<g><path style="opacity:1" fill="#a3a0a4" d="M 307.5,401.5 C 311.172,401.183 312.838,402.849 312.5,406.5C 310.712,406.215 309.045,406.548 307.5,407.5C 307.833,408.5 308.5,409.167 309.5,409.5C 310.451,408.674 311.451,408.508 312.5,409C 308.714,411.468 306.38,410.468 305.5,406C 305.519,404.167 306.185,402.667 307.5,401.5 Z"/></g>
<g><path style="opacity:1" fill="#a5a3a6" d="M 215.5,398.5 C 217.92,398.292 220.253,398.626 222.5,399.5C 223.747,401.006 223.747,402.506 222.5,404C 225.033,406.084 225.033,408.084 222.5,410C 220.19,410.497 217.857,410.663 215.5,410.5C 215.5,406.5 215.5,402.5 215.5,398.5 Z"/></g>
<g><path style="opacity:1" fill="#f9fbf4" d="M 217.5,405.5 C 219.167,405.5 220.833,405.5 222.5,405.5C 222.5,406.5 222.5,407.5 222.5,408.5C 220.833,408.5 219.167,408.5 217.5,408.5C 217.5,407.5 217.5,406.5 217.5,405.5 Z"/></g>
<g><path style="opacity:1" fill="#9a9a9a" d="M 192.5,396.5 C 201.312,395.81 204.312,399.643 201.5,408C 203.616,409.171 204.282,410.671 203.5,412.5C 202.186,411.687 201.019,410.687 200,409.5C 196.304,412.425 192.971,412.092 190,408.5C 187.523,403.669 188.356,399.669 192.5,396.5 Z"/></g>
<g><path style="opacity:1" fill="#fbfbfb" d="M 192.5,398.5 C 200.592,397.737 202.926,400.903 199.5,408C 194.323,410.745 191.323,409.245 190.5,403.5C 190.437,401.486 191.103,399.819 192.5,398.5 Z"/></g>
<g><path style="opacity:1" fill="#f5f5f5" d="M 69.5,424.5 C 71.0103,425.836 72.6769,427.003 74.5,428C 193.833,428.667 313.167,428.667 432.5,428C 434.286,427.215 435.786,426.049 437,424.5C 437.259,428.145 435.759,430.978 432.5,433C 430.112,434.861 427.446,436.194 424.5,437C 310.5,437.667 196.5,437.667 82.5,437C 75.6501,435.315 71.3168,431.148 69.5,424.5 Z"/></g>
<g><path style="opacity:1" fill="#4a394a" d="M 255.5,445.5 C 251.881,444.594 250.048,446.26 250,450.5C 248.523,446.002 250.023,443.835 254.5,444C 255.056,444.383 255.389,444.883 255.5,445.5 Z"/></g>
<g><path style="opacity:1" fill="#563a4c" d="M 255.5,445.5 C 256.622,447.288 256.789,449.288 256,451.5C 254.612,452.554 253.112,452.72 251.5,452C 255.03,451.328 256.363,449.162 255.5,445.5 Z"/></g>
<g><path style="opacity:1" fill="#e6e6e6" d="M 437.5,474.5 C 437.832,486.915 437.499,498.582 436.5,509.5C 436.667,498.162 436.5,486.828 436,475.5C 435.5,472.333 433.667,470.5 430.5,470C 312.5,469.333 194.5,469.333 76.5,470C 73.3333,470.5 71.5,472.333 71,475.5C 70.6667,487.167 70.3333,498.833 70,510.5C 69.3333,498.167 69.3333,485.833 70,473.5C 70.8333,471.333 72.3333,469.833 74.5,469C 193.833,468.333 313.167,468.333 432.5,469C 435.056,470.055 436.723,471.888 437.5,474.5 Z"/></g>
<g><path style="opacity:1" fill="#181818" d="M 162.5,484.5 C 164.167,484.5 165.833,484.5 167.5,484.5C 167.5,486.167 167.5,487.833 167.5,489.5C 165.833,489.5 164.167,489.5 162.5,489.5C 162.5,487.833 162.5,486.167 162.5,484.5 Z"/></g>
<g><path style="opacity:1" fill="#181818" d="M 173.5,484.5 C 175.167,484.5 176.833,484.5 178.5,484.5C 178.5,486.167 178.5,487.833 178.5,489.5C 176.833,489.5 175.167,489.5 173.5,489.5C 173.5,487.833 173.5,486.167 173.5,484.5 Z"/></g>
<g><path style="opacity:1" fill="#b9b9b9" d="M 174.5,485.5 C 175.5,485.5 176.5,485.5 177.5,485.5C 177.5,486.5 177.5,487.5 177.5,488.5C 176.5,488.5 175.5,488.5 174.5,488.5C 174.5,487.5 174.5,486.5 174.5,485.5 Z"/></g>
<g><path style="opacity:1" fill="#b6b6b6" d="M 163.5,485.5 C 164.5,485.5 165.5,485.5 166.5,485.5C 166.5,486.5 166.5,487.5 166.5,488.5C 165.5,488.5 164.5,488.5 163.5,488.5C 163.5,487.5 163.5,486.5 163.5,485.5 Z"/></g>
<g><path style="opacity:1" fill="#4a739e" d="M 296.5,486.5 C 298.337,486.639 298.67,487.306 297.5,488.5C 296.702,488.043 296.369,487.376 296.5,486.5 Z"/></g>
<g><path style="opacity:1" fill="#403648" d="M 209.5,489.5 C 211.665,489.116 213.332,489.783 214.5,491.5C 213.113,491.807 211.446,491.807 209.5,491.5C 209.34,493.199 209.506,494.866 210,496.5C 211.744,497.03 213.244,497.03 214.5,496.5C 212.423,499.119 210.257,499.119 208,496.5C 207.167,493.829 207.667,491.496 209.5,489.5 Z"/></g>
<g><path style="opacity:1" fill="#623d36" d="M 242.5,491.5 C 242.672,492.492 242.338,493.158 241.5,493.5C 241.38,492.414 240.713,491.747 239.5,491.5C 238.584,491.543 237.917,491.876 237.5,492.5C 236.566,493.568 236.232,494.901 236.5,496.5C 234.5,491.657 236.167,489.491 241.5,490C 242.056,490.383 242.389,490.883 242.5,491.5 Z"/></g>
<g><path style="opacity:1" fill="#403343" d="M 249.5,497.5 C 247.623,498.928 246.289,498.428 245.5,496C 245.645,495.228 245.978,494.561 246.5,494C 247.938,493.781 249.271,493.281 250.5,492.5C 248.994,491.253 247.494,491.253 246,492.5C 246.719,489.64 248.553,488.973 251.5,490.5C 252.833,493.167 252.833,495.833 251.5,498.5C 250.817,498.137 250.15,497.804 249.5,497.5 Z"/></g>
<g><path style="opacity:1" fill="#442c31" d="M 268.5,486.5 C 271.061,486.447 273.061,487.447 274.5,489.5C 272.341,488.494 269.841,488.494 267,489.5C 265.703,493.154 266.703,495.821 270,497.5C 271.314,496.687 272.481,495.687 273.5,494.5C 274.594,495.868 274.26,497.035 272.5,498C 266.171,498.668 263.671,495.834 265,489.5C 266.145,488.364 267.312,487.364 268.5,486.5 Z"/></g>
<g><path style="opacity:1" fill="#4d3539" d="M 312.5,489.5 C 317.383,490.466 318.717,493.299 316.5,498C 311,499.167 308.833,497 310,491.5C 310.995,490.934 311.828,490.267 312.5,489.5 Z"/></g>
<g><path style="opacity:1" fill="#3b242f" d="M 226.5,489.5 C 232.977,489.023 234.977,492.023 232.5,498.5C 231.526,496.257 231.192,493.924 231.5,491.5C 230.167,491.5 228.833,491.5 227.5,491.5C 227.663,493.857 227.497,496.19 227,498.5C 226.502,495.518 226.335,492.518 226.5,489.5 Z"/></g>
<g><path style="opacity:1" fill="#503d57" d="M 254.5,489.5 C 255.94,490.363 257.274,490.363 258.5,489.5C 258.833,489.833 259.167,490.167 259.5,490.5C 258.675,491.386 257.675,491.719 256.5,491.5C 256.808,493.924 256.474,496.257 255.5,498.5C 254.516,495.572 254.183,492.572 254.5,489.5 Z"/></g>
<g><path style="opacity:1" fill="#5081aa" d="M 296.5,489.5 C 297.765,490.514 298.431,492.014 298.5,494C 298.167,495.5 297.833,497 297.5,498.5C 296.516,495.572 296.183,492.572 296.5,489.5 Z"/></g>
<g><path style="opacity:1" fill="#555555" d="M 169.5,487.5 C 170.649,487.791 171.316,488.624 171.5,490C 171.333,490.833 171.167,491.667 171,492.5C 169.186,493.76 167.353,493.76 165.5,492.5C 166.689,491.571 168.022,491.238 169.5,491.5C 169.5,490.167 169.5,488.833 169.5,487.5 Z"/></g>
<g><path style="opacity:1" fill="#3b2828" d="M 221.5,497.5 C 217.531,499.341 216.197,498.175 217.5,494C 219.256,493.798 220.922,493.298 222.5,492.5C 220.994,491.253 219.494,491.253 218,492.5C 217.383,491.551 217.549,490.718 218.5,490C 220.112,489.28 221.612,489.446 223,490.5C 223.667,493.167 223.667,495.833 223,498.5C 222.617,497.944 222.117,497.611 221.5,497.5 Z"/></g>
<g><path style="opacity:1" fill="#ece5d9" d="M 312.5,491.5 C 316.35,491.701 317.35,493.534 315.5,497C 311.537,497.118 310.537,495.284 312.5,491.5 Z"/></g>
<g><path style="opacity:1" fill="#54424a" d="M 189.5,486.5 C 192.247,486.187 194.914,486.52 197.5,487.5C 195.604,488.466 193.604,488.799 191.5,488.5C 191.5,489.5 191.5,490.5 191.5,491.5C 198.167,492.167 198.167,492.833 191.5,493.5C 191.5,494.5 191.5,495.5 191.5,496.5C 193.604,496.201 195.604,496.534 197.5,497.5C 194.914,498.48 192.247,498.813 189.5,498.5C 189.5,494.5 189.5,490.5 189.5,486.5 Z"/></g>
<g><path style="opacity:1" fill="#e2e9e5" d="M 241.5,493.5 C 239.901,493.768 238.568,493.434 237.5,492.5C 237.917,491.876 238.584,491.543 239.5,491.5C 240.713,491.747 241.38,492.414 241.5,493.5 Z"/></g>
<g><path style="opacity:1" fill="#422f2f" d="M 291.5,497.5 C 288.004,499.344 286.337,498.177 286.5,494C 286.754,490.129 288.587,488.963 292,490.5C 292.333,489.167 292.667,487.833 293,486.5C 293.667,490.5 293.667,494.5 293,498.5C 292.617,497.944 292.117,497.611 291.5,497.5 Z"/></g>
<g><path style="opacity:1" fill="#f1e7d9" d="M 291.5,497.5 C 290.5,497.5 289.5,497.5 288.5,497.5C 288.5,495.5 288.5,493.5 288.5,491.5C 289.833,491.5 291.167,491.5 292.5,491.5C 292.675,493.621 292.341,495.621 291.5,497.5 Z"/></g>
<g><path style="opacity:1" fill="#3a3344" d="M 302.5,489.5 C 304.331,490.052 305.997,490.052 307.5,489.5C 308.659,493.122 308.825,496.789 308,500.5C 305.861,501.769 303.695,501.769 301.5,500.5C 302.887,500.193 304.554,500.193 306.5,500.5C 306.911,497.724 306.078,497.057 304,498.5C 301.472,497.803 300.306,496.136 300.5,493.5C 300.803,491.886 301.47,490.552 302.5,489.5 Z"/></g>
<g><path style="opacity:1" fill="#faf1e2" d="M 302.5,491.5 C 303.833,491.5 305.167,491.5 306.5,491.5C 306.5,493.167 306.5,494.833 306.5,496.5C 305.167,496.5 303.833,496.5 302.5,496.5C 302.5,494.833 302.5,493.167 302.5,491.5 Z"/></g>
<g><path style="opacity:1" fill="#492f3c" d="M 336.5,486.5 C 341.993,485.178 344.493,487.178 344,492.5C 343.5,493 343,493.5 342.5,494C 343.765,495.337 344.265,496.837 344,498.5C 343.125,495.785 341.292,494.452 338.5,494.5C 338.762,495.978 338.429,497.311 337.5,498.5C 336.509,494.555 336.176,490.555 336.5,486.5 Z"/></g>
<g><path style="opacity:1" fill="#f8f0e1" d="M 338.5,488.5 C 340.665,488.116 342.332,488.783 343.5,490.5C 342.332,492.217 340.665,492.884 338.5,492.5C 338.5,491.167 338.5,489.833 338.5,488.5 Z"/></g>
<g><path style="opacity:1" fill="#3c343d" d="M 200.5,489.5 C 202.665,489.116 204.332,489.783 205.5,491.5C 204.313,491.554 202.98,491.887 201.5,492.5C 205.021,493.15 206.021,494.983 204.5,498C 202.597,498.774 200.93,498.44 199.5,497C 204.683,497.424 204.85,496.257 200,493.5C 199.421,492.072 199.588,490.738 200.5,489.5 Z"/></g>
<g><path style="opacity:1" fill="#25223a" d="M 242.5,491.5 C 243.404,492.209 243.737,493.209 243.5,494.5C 241.396,494.201 239.396,494.534 237.5,495.5C 238.748,497.69 240.414,498.023 242.5,496.5C 243.696,496.846 243.696,497.346 242.5,498C 240.011,498.941 238.011,498.441 236.5,496.5C 236.232,494.901 236.566,493.568 237.5,492.5C 238.568,493.434 239.901,493.768 241.5,493.5C 242.338,493.158 242.672,492.492 242.5,491.5 Z"/></g>
<g><path style="opacity:1" fill="#161716" d="M 162.5,495.5 C 164.167,495.5 165.833,495.5 167.5,495.5C 167.5,497.167 167.5,498.833 167.5,500.5C 165.833,500.5 164.167,500.5 162.5,500.5C 162.5,498.833 162.5,497.167 162.5,495.5 Z"/></g>
<g><path style="opacity:1" fill="#e4dbcf" d="M 221.5,497.5 C 220.5,497.5 219.5,497.5 218.5,497.5C 218.5,496.5 218.5,495.5 218.5,494.5C 221.567,494.121 222.567,495.121 221.5,497.5 Z"/></g>
<g><path style="opacity:1" fill="#e9efe4" d="M 249.5,497.5 C 245.925,496.793 245.758,495.793 249,494.5C 250.683,495.176 250.85,496.176 249.5,497.5 Z"/></g>
<g><path style="opacity:1" fill="#181818" d="M 173.5,495.5 C 179.167,495.664 179.5,495.997 174.5,496.5C 173.997,501.5 173.664,501.167 173.5,495.5 Z"/></g>
<g><path style="opacity:1" fill="#3c3249" d="M 278.5,489.5 C 284.651,490.103 285.984,492.936 282.5,498C 277.504,498.664 275.67,496.498 277,491.5C 277.717,490.956 278.217,490.289 278.5,489.5 Z"/></g>
<g><path style="opacity:1" fill="#f5f5ea" d="M 278.5,491.5 C 279.833,491.5 281.167,491.5 282.5,491.5C 282.949,493.977 282.283,495.977 280.5,497.5C 278.717,495.977 278.051,493.977 278.5,491.5 Z"/></g>
<g><path style="opacity:1" fill="#3b2830" d="M 327.5,486.5 C 330.099,486.549 332.266,487.549 334,489.5C 334.625,493.401 334.125,496.734 332.5,499.5C 325.107,499.263 322.607,495.597 325,488.5C 325.995,487.934 326.828,487.267 327.5,486.5 Z"/></g>
<g><path style="opacity:1" fill="#eaecea" d="M 326.5,488.5 C 332.235,487.821 333.902,490.155 331.5,495.5C 329.898,494.45 329.065,495.117 329,497.5C 325.415,495.371 324.582,492.371 326.5,488.5 Z"/></g>
<g><path style="opacity:1" fill="#b6b6b6" d="M 163.5,496.5 C 164.5,496.5 165.5,496.5 166.5,496.5C 166.5,497.5 166.5,498.5 166.5,499.5C 165.5,499.5 164.5,499.5 163.5,499.5C 163.5,498.5 163.5,497.5 163.5,496.5 Z"/></g>
<g><path style="opacity:1" fill="#4b4b4b" d="M 169.5,498.5 C 171.337,498.639 171.67,499.306 170.5,500.5C 169.702,500.043 169.369,499.376 169.5,498.5 Z"/></g>
<g><path style="opacity:1" fill="#efefef" d="M 437.5,474.5 C 438.66,486.66 438.827,498.993 438,511.5C 437.261,514.573 435.428,516.74 432.5,518C 313.167,518.667 193.833,518.667 74.5,518C 71.1247,516.971 69.9581,514.804 71,511.5C 72.1667,512.667 73.3333,513.833 74.5,515C 193.833,515.667 313.167,515.667 432.5,515C 434.469,513.5 435.802,511.667 436.5,509.5C 437.499,498.582 437.832,486.915 437.5,474.5 Z"/></g>
<g><path style="opacity:1" fill="#eaeaea" d="M 51.5,540.5 C 51.8333,540.5 52.1667,540.5 52.5,540.5C 53.2625,541.268 54.2625,541.768 55.5,542C 187.5,542.667 319.5,542.667 451.5,542C 452.737,541.768 453.737,541.268 454.5,540.5C 454.833,540.5 455.167,540.5 455.5,540.5C 455.938,540.435 456.272,540.601 456.5,541C 452.628,543.702 448.295,545.035 443.5,545C 316.833,545.667 190.167,545.667 63.5,545C 58.7055,545.035 54.3721,543.702 50.5,541C 50.7284,540.601 51.0618,540.435 51.5,540.5 Z"/></g>
<g><path style="opacity:1" fill="#e0e0e0" d="M 52.5,540.5 C 186.5,540.5 320.5,540.5 454.5,540.5C 453.737,541.268 452.737,541.768 451.5,542C 319.5,542.667 187.5,542.667 55.5,542C 54.2625,541.768 53.2625,541.268 52.5,540.5 Z"/></g>
</svg>
